<svg preserveAspectRatio="none" xmlns="http://www.w3.org/2000/svg" width="140" height="80" viewBox="0 0 140 80"><path fill-rule="evenodd" clip-rule="evenodd" fill="#039" d="M6 0C2.689 0 0 2.69 0 6v68c0 3.311 2.689 6 6 6h128c3.311 0 6-2.689 6-6V6c0-3.31-2.689-6-6-6H6z"/><g fill="#FFF"><path d="M52.245 27.021V28.6h-8.546v-1.579h4.548c.33-1.479.47-2.279.649-4.018h-3.928v-1.569h5.767c-.119 1.719-.38 3.858-.759 5.587h2.269zM62.235 24.172v1.649H53.68v-1.649h8.555zM66.618 26.352h-1.609v-2.279H63.57v-1.509h1.439v-1.699h1.609v1.699h2.339v-1.719h1.419l.04 1.719h1.689v1.509h-1.569v.81c0 2.568-1.29 4.038-4.598 4.538l-.6-1.479c3.148-.35 3.618-1.609 3.618-3.058v-.81h-2.339v2.278zm4.518-6.367c.279.72.39 1.279.51 2.089l-.83.18c-.09-.849-.18-1.309-.449-2.059l.769-.21zm1.348-.03c.28.729.37 1.169.521 2.079l-.82.19c-.1-.85-.199-1.299-.47-2.049l.769-.22zM82.235 24.172v1.649H73.68v-1.649h8.555zM87.938 28.68l-.49.85c-.279-.2-.499-.35-1.139-.67-.64.41-1.39.72-2.539.93l-.53-1.24c.779-.07 1.219-.19 1.599-.34-.899-.35-1.18-.4-1.359-.44.18-.27.311-.459.6-1.079h-.84v-1.2h1.319c.119-.33.17-.53.22-.739l.39.04v-1.07c-.62.78-1.109 1.089-1.459 1.299l-.69-1.079c.34-.12.8-.33 1.54-1.02h-1.32v-1.14h.579c-.17-.589-.369-.979-.47-1.179l1.04-.37c.289.55.399.77.549 1.219l-.879.33h1.109v-1.539h1.399v1.539h1.189l-1.07-.32c.12-.2.33-.52.601-1.259l1.159.3c-.141.37-.34.78-.63 1.279h.489v1.14h-1.289c.17.17.5.479.93.74.33-.5 1.029-1.779 1.199-3.488l1.47.16c-.051.33-.101.69-.221 1.25h2.31v1.509h-.32c-.04.57-.17 2.539-.919 3.928.549.7 1.089 1.04 1.419 1.25l-.83 1.469c-.369-.26-.929-.65-1.559-1.419-.75.77-1.489 1.179-1.859 1.389l-.698-1.03zm-2.419-1.989c-.04.1-.06.15-.25.54.271.06.47.1.859.21.29-.31.39-.55.48-.75h-1.089zm2.388 0c-.09.27-.22.669-.569 1.179.13.06.3.13.749.32.38-.17 1-.49 1.6-1.149-.14-.32-.44-.969-.689-2.219-.16.23-.25.33-.41.51l-.899-1.02-.29.39c-.25-.19-.43-.32-.829-.85v1.08h-.38c-.11.32-.141.42-.19.56h2.409v1.2h-.502zm2.039-3.598c.149 1.299.5 2.119.63 2.429.329-.979.38-1.859.399-2.429h-1.029z"/></g><g fill="#FFF"><path d="M50.928 60.584c-3.776 0-7.584-2.016-7.584-7.136h5.248c0 1.601 1.023 2.4 2.336 2.4 1.376 0 2.336-.8 2.336-2.432 0-1.376-1.024-2.4-2.433-2.4h-.735v-4.544h.735c1.568 0 2.176-1.119 2.176-2.144 0-1.439-.991-2.176-2.079-2.176s-2.08.768-2.08 2.144H43.6c0-4.287 3.264-6.879 7.328-6.879 4.224 0 7.327 2.815 7.327 6.751 0 2.496-1.216 3.712-2.368 4.448 1.248.863 2.624 2.239 2.624 4.959 0 4.769-3.584 7.009-7.583 7.009zM68.688 60.584c-3.775 0-7.327-2.399-7.327-7.104v-8.959c0-4.704 3.552-7.104 7.327-7.104s7.327 2.399 7.327 7.104v8.959c0 4.705-3.552 7.104-7.327 7.104zm2.08-16.063c0-1.601-.96-2.368-2.08-2.368s-2.08.768-2.08 2.368v8.991c0 1.6.96 2.336 2.08 2.336s2.08-.736 2.08-2.336v-8.991zM86.479 60.584c-3.776 0-7.327-2.399-7.327-7.104v-8.959c0-4.704 3.551-7.104 7.327-7.104 3.775 0 7.327 2.399 7.327 7.104v8.959c.001 4.705-3.551 7.104-7.327 7.104zm2.081-16.063c0-1.601-.96-2.368-2.08-2.368s-2.08.768-2.08 2.368v8.991c0 1.6.96 2.336 2.08 2.336s2.08-.736 2.08-2.336v-8.991z"/></g><path fill-rule="evenodd" clip-rule="evenodd" fill="#FFF" d="M25.87 38c-2.931 0-5.931 2.561-5.931 4.84v3.44c0 1.65.58 4.59 2.42 6.09l-5.029 2.84S16 55.78 16 56.59v2.03c0 .76.6 1.38 1.33 1.38h17.34c.73 0 1.33-.62 1.33-1.38v-2.03c0-.81-1.33-1.38-1.33-1.38l-5.029-2.84c1.84-1.5 2.42-4.439 2.42-6.09v-3.44c0-2.279-3-4.84-5.931-4.84h-.26zm-8.3 20.37v-1.45c.109-.069 5.539-3.12 5.539-3.12.461-.26.771-.75.82-1.29a1.66 1.66 0 0 0-.6-1.42c-1.359-1.1-1.811-3.54-1.811-4.81v-3.44c0-1.2 2.08-3.21 4.351-3.21h.26c2.271 0 4.351 2.01 4.351 3.21v3.44c0 1.27-.451 3.71-1.811 4.81a1.66 1.66 0 0 0-.6 1.42c.05.54.359 1.03.82 1.29 0 0 5.43 3.051 5.539 3.12v1.45H17.57z"/><g fill="#FFF"><path d="M99.516 56.225c.779-1.308 1.476-3.179 1.991-5.661l-1.619.012v-1.823h1.907c.084-.803.155-1.427.18-2.038l2.003.107a38.385 38.385 0 0 1-.264 1.931h.959c1.919 0 2.603 1.116 2.603 3.515 0 .936-.144 2.578-.575 3.55-.468 1.056-1.296 1.271-2.291 1.271a9.264 9.264 0 0 1-1.26-.084l-.144-1.907c.324.061.768.132 1.127.132.528 0 .768-.191.899-.563.276-.779.396-1.787.396-2.614 0-1.08-.156-1.512-1.128-1.512h-.887c-.372 1.883-1.056 4.834-2.039 6.572l-1.858-.888zm8.922-2.711c-.036-2.53-.695-3.897-1.403-4.905l1.644-.792c.636.852 1.571 2.315 1.751 5.361l-1.992.336zM114.226 48.944c-.155.708-.252 1.163-.3 2.519.384-.228 1.691-1.02 3.515-1.02 2.614 0 3.322 1.799 3.322 3.022 0 3.13-3.035 3.622-5.817 3.622-1.104 0-1.631-.061-2.123-.096l-.228-1.848c.479.048 1.427.156 2.446.156 3.022 0 3.73-.888 3.73-1.883 0-1.212-1.271-1.296-1.596-1.296-1.211 0-2.566.517-3.286 1.332 0 .191 0 .239-.012.336l-1.883-.061c.036-3.118.12-3.682.288-4.929l1.944.146zm4.641.432c-1.235-.504-2.975-.852-5.205-.995l.336-1.764c1.14.036 3.143.12 5.337.756l-.468 2.003z"/></g></svg>