<svg preserveAspectRatio="none" xmlns="http://www.w3.org/2000/svg" width="140" height="80" viewBox="0 0 140 80"><path fill-rule="evenodd" clip-rule="evenodd" fill="#039" d="M6 0C2.689 0 0 2.69 0 6v68c0 3.311 2.689 6 6 6h128c3.311 0 6-2.689 6-6V6c0-3.31-2.689-6-6-6H6z"/><g fill="#FFF"><path d="M37.501 33.838c2.788-1.02 5.661-2.703 6.545-7.021h-6.307V24.2h6.511v-3.773h2.72V24.2h6.782v2.618H47.31c1.054 4.097 3.417 5.864 6.799 7.123l-1.462 2.583c-2.073-.85-5.303-2.533-6.85-6.918-1.7 4.471-5.287 6.17-6.919 6.884l-1.377-2.652zM69.851 27.566a19.962 19.962 0 0 1-7.139-5.15c-2.058 2.481-4.726 4.165-7.174 5.184l-1.139-2.566c1.547-.544 4.624-1.751 6.936-4.606h2.805c2.362 2.873 5.422 4.028 6.952 4.538l-1.241 2.6zm-.579.391v2.414h-4.997v3.212h6.222v2.482H54.994v-2.482h1.87v-6.136h2.516v6.136h2.38v-8.652h2.516v3.026h4.996zM86.664 36.388c-1.445-.425-3.332-1.104-5.644-3.025v3.162h-2.516v-3.026c-1.53 1.36-3.162 2.176-5.66 2.89l-1.19-2.261c2.396-.544 3.791-1.054 5.1-1.835h-4.997v-1.972h6.748v-.697h-5.609v-1.615h5.609v-.68h-6.086v-1.904h3.366c-.034-.119-.238-.68-.34-.867h-3.688V22.45h2.124a11.742 11.742 0 0 0-.748-1.547l2.465-.476c.34.714.493 1.173.731 2.022h.714v-1.972h2.261v1.972h.952v-1.972h2.243v1.972h.697c.289-.612.561-1.428.73-2.022l2.465.476c-.187.459-.425 1.02-.696 1.547h2.039v2.108h-3.638c-.102.272-.221.646-.322.867h3.365v1.904H81.02v.68h5.66v1.615h-5.66v.697h6.714v1.972h-4.878c.884.51 2.073 1.122 5.065 1.75l-1.257 2.345zm-5.405-10.964c.136-.323.187-.527.271-.867h-3.484c.051.136.323.833.34.867h2.873zM93.142 21.616c-.187.986-.662 3.638-.662 7.819 0 3.4.306 5.27.459 6.068l-2.839.188c-.153-.884-.408-2.516-.408-5.779 0-2.856.17-5.677.595-8.499l2.855.203zm4.385 7.429c-.578.782-.815 1.479-.815 1.92 0 1.105 1.258 1.241 2.754 1.241.526 0 2.583-.034 4.045-.204l.051 2.753c-.646.085-1.598.17-3.11.17-3.604 0-6.238-.51-6.238-3.536 0-.595.085-1.615.901-2.992l2.412.648zm5.712-6.477v2.652h-8.517v-2.652h8.517zM61.02 60.575c-.867-.255-1.955-.646-3.11-1.395-1.225.748-2.278 1.088-3.179 1.343l-.918-2.039v2.039h-2.397v-1.088c-.561.086-2.787.374-5.456.442l-.188-2.125c.171 0 .851-.017 1.003-.017v-5.27h-.884V50.51h16.217v1.955h-8.295v5.881a14.38 14.38 0 0 0 2.192-.696c-.85-.935-1.224-1.666-1.462-2.193l2.006-.561H54.22v-1.802h7.327v1.818c-.222.578-.663 1.649-1.649 2.703.51.221 1.071.425 2.396.73l-1.274 2.23zM47.166 44.817h13.633v5.15H47.166v-5.15zm1.921 7.65v.748h2.328v-.748h-2.328zm0 2.159v.73h2.328v-.73h-2.328zm2.328 2.124h-2.328v.936c.781-.034 1.666-.103 2.328-.153v-.783zm-1.699-10.454v.63h8.516v-.63h-8.516zm0 1.7v.646h8.516v-.646h-8.516zm6.918 6.901a7.71 7.71 0 0 0 1.309 1.547c.646-.612.952-1.139 1.19-1.547h-2.499zM72.002 49.815h-2.057v7.462h-1.921c.408.187.765.323 1.122.391.356.068.73.103 1.173.103h9.009l-.51 2.413h-8.295c-1.938 0-3.128-.306-4.386-1.768-.748.85-1.7 1.632-2.431 2.193l-.936-2.805c.748-.307 1.445-.748 1.666-.936v-3.723H63.01V50.75h3.842v5.167c.085.307.17.629.799 1.105v-8.958h1.904a16.56 16.56 0 0 0-.204-.833h-1.683l-1.955 1.903a20.563 20.563 0 0 0-2.618-2.771l1.683-1.818a23.58 23.58 0 0 1 2.312 1.988v-1.292h4.606v-.765h2.516v.765h4.793v1.989h-2.328c-.034.119-.221.696-.272.833h2.006v7.734c0 1.02-.646 1.529-1.513 1.529h-2.346l-.102-.799h-3.893v-3.706h1.444v-.646h-1.785v-1.648h1.785v-.712zm-.34-2.584c.051.204.085.323.17.833h2.295c.068-.222.085-.357.187-.833h-2.652zm.595 7.021v.85h1.479v-.85h-1.479zm1.717-3.723h1.836v1.648h-1.836v.646h1.479v2.448c.476 0 .629 0 .629-.323v-5.133h-2.108v.714zM81.642 52.841c-.476.578-.68.782-1.07 1.155l-.918-3.382c1.818-2.159 2.72-3.944 3.195-6.238l2.55.221c-.136.696-.34 1.802-1.156 3.773v12.171h-2.601v-7.7zm8.04-8.398v5.354c.612-.271 2.72-1.155 4.811-2.787l1.547 2.192c-1.563 1.122-4.402 2.55-6.357 3.195v4.776c0 .323 0 .63.646.63h2.227c.612 0 .765-.188.833-.493.051-.272.153-2.125.153-2.635l2.566.714c.017 4.845-1.037 4.946-2.244 4.946h-4.946c-1.359 0-1.87-.476-1.87-1.7V44.443h2.634z"/></g></svg>