<svg preserveAspectRatio="none" xmlns="http://www.w3.org/2000/svg" width="140" height="80" viewBox="0 0 140 80"><path fill-rule="evenodd" clip-rule="evenodd" fill="#FFBE00" d="M6 0C2.689 0 0 2.69 0 6v68c0 3.311 2.689 6 6 6h128c3.311 0 6-2.689 6-6V6c0-3.31-2.689-6-6-6H6z"/><g fill="#FFF"><path d="M61.073 22.316h-16.08v-2.074h6.68v-.85h2.602v.85h6.799v2.074zM49.191 34.164V29.88h7.785v3.264h.612c.221 0 .34-.068.34-.391v-3.502h-9.757v6.307h-2.567v-8.159H60.46v6.493c0 1.224-.815 1.666-1.547 1.666H56.33l-.272-1.394h-6.867zm9.775-7.36H47.084v-3.995h11.882v3.995zm-2.55-2.465h-6.834v.833h6.834v-.833zm-1.854 7.156h-2.957v.952h2.957v-.952zM63.03 20.498h6.034v-1.071h2.566v1.071h6.459v2.227h-2.192v.833h2.244v1.938h-2.244v2.533h-8.601v-2.533h-1.769v2.396c0 3.468-.544 5.831-1.513 7.734l-2.261-1.87c.374-.68 1.275-2.312 1.275-5.966v-7.292zm5.236 10.232h-2.312v-2.074h10.794v2.074c-.289.442-.781 1.207-2.039 2.057.918.204 1.836.323 3.501.442l-.918 2.414c-1.853-.221-3.994-.663-5.66-1.309-2.617.918-4.657 1.139-5.813 1.258l-.85-2.261c.884-.068 2.227-.17 3.705-.544-.815-.595-1.054-.867-1.359-1.207l.951-.85zm-2.788-8.006v.833h1.768v-.833h-1.768zm4.215 8.006c.9.697 1.479.952 1.887 1.139.833-.459 1.156-.782 1.513-1.139h-3.4zm.017-8.006v.833h3.74v-.833h-3.74zm0 2.771v.85h3.74v-.85h-3.74zM87.968 21.959v2.549H84.67c-.799 3.859-1.784 6.544-2.481 8.5l-2.771-.986c.459-.918 1.632-3.264 2.516-7.514h-2.176v-2.549h2.618c.118-.986.152-1.343.17-1.887l2.839.102c-.103.731-.137.935-.256 1.785h2.839zm3.672 7.003c1.037.51 2.346 1.479 3.06 2.159l-1.513 2.566a13.344 13.344 0 0 0-1.768-1.734c-.051 2.839-2.941 2.839-3.553 2.839-2.499 0-4.113-1.292-4.113-3.281 0-1.649 1.224-3.467 4.147-3.467.476 0 .833.051 1.054.085l-.068-3.077h2.686l.068 3.91zm-2.619 1.581c-.255-.102-.595-.238-1.173-.238-.832 0-1.717.323-1.717 1.139 0 .323.188 1.054 1.581 1.054.51 0 1.309-.102 1.309-1.122v-.833zm4.54-4.81c-1.411-.833-2.72-1.479-4.964-2.312l1.156-2.312a24.504 24.504 0 0 1 4.98 2.244l-1.172 2.38zM20.98 56.702c4.131-2.295 4.726-5.49 5.031-7.122h-4.267v-2.55H26.3c.068-.867.085-1.394.085-2.821l2.805.033a53.933 53.933 0 0 1-.153 2.788h5.898v2.72c0 1.853-.118 5.644-.73 7.174-.697 1.75-2.363 1.75-3.314 1.75-1.207 0-2.006-.119-2.448-.188l-.152-2.702c.544.085 1.359.204 2.209.204 1.055 0 1.241-.238 1.411-.969.136-.646.323-2.924.323-4.539v-.9h-3.485c-.391 2.057-1.173 6.221-5.915 9.195l-1.854-2.073zM50.083 44.957c-.646 3.535-1.921 5.66-2.924 7.104 2.21 1.666 3.417 2.651 5.372 4.59l-2.278 2.227c-.952-1.054-2.532-2.855-4.76-4.794-1.07 1.123-3.331 3.35-6.459 4.691l-1.53-2.26c2.228-.936 4.182-2.244 5.848-3.979 1.564-1.631 2.465-3.212 3.145-5.014h-7.989v-2.566h11.575zM54.317 49.852c1.462-.884 3.298-2.346 4.369-4.98h9.672c-.255 3.025-.952 6.222-3.264 9.061-1.547 1.904-4.097 3.961-8.329 5.049l-1.411-2.448c1.955-.392 4.42-1.224 6.748-3.434-1.444-1.14-2.532-1.836-4.13-2.651a10.97 10.97 0 0 1-1.854 1.461l-1.801-2.058zm6.188-2.516c-.289.442-.441.663-.969 1.359.935.426 2.481 1.123 4.165 2.414.935-1.529 1.206-3.025 1.343-3.773h-4.539zM74.819 50.242a37.817 37.817 0 0 1 2.669 2.023c2.617-1.683 3.638-3.399 4.062-4.113H70.909V45.55h14.636c-.85 4.046-3.195 6.324-6.136 8.449 1.343 1.359 1.495 1.495 2.498 2.668l-2.396 1.973c-2.396-3.264-5.065-5.321-6.782-6.579l2.09-1.819zM96.816 58.708h-2.89v-6.782c-2.55 1.479-4.453 2.107-5.439 2.447l-1.359-2.396c3.519-1.139 8.159-3.229 12.103-7.989l2.396 1.683c-1.155 1.275-2.396 2.567-4.811 4.369v8.668zM115.551 47.319c-.697 2.159-1.513 3.45-2.346 4.691 2.481 1.87 3.756 3.025 5.337 4.572l-2.243 2.261c-1.938-2.192-2.465-2.686-4.743-4.776-1.598 1.7-3.858 3.587-6.477 4.726l-1.529-2.277c1.733-.715 6.731-3.061 8.975-8.992h-7.989v-2.566h9.451l1.564 2.361zm.322-3.791c.782 1.173 1.241 2.38 1.564 3.28l-1.292.664c-.442-1.395-.765-2.143-1.479-3.332l1.207-.612zm2.244-.612c.697 1.088 1.054 1.955 1.547 3.299l-1.292.662c-.441-1.394-.765-2.158-1.462-3.349l1.207-.612z"/></g></svg>