<svg preserveAspectRatio="none" xmlns="http://www.w3.org/2000/svg" width="140" height="80" viewBox="0 0 140 80"><path fill-rule="evenodd" clip-rule="evenodd" fill="#FFBE00" d="M6 0C2.689 0 0 2.69 0 6v68c0 3.311 2.689 6 6 6h128c3.311 0 6-2.689 6-6V6c0-3.31-2.689-6-6-6H6z"/><g fill="#FFF"><path d="M29.613 33.484c1.104-1.853 2.091-4.505 2.821-8.023l-2.294.017v-2.584h2.702c.119-1.139.222-2.022.255-2.89l2.839.153a54.42 54.42 0 0 1-.374 2.737h1.36c2.72 0 3.688 1.581 3.688 4.98 0 1.326-.204 3.655-.816 5.032-.662 1.496-1.836 1.802-3.246 1.802-.884 0-1.547-.085-1.785-.119l-.204-2.703c.459.085 1.088.187 1.598.187.748 0 1.088-.272 1.275-.799.391-1.105.561-2.533.561-3.706 0-1.53-.221-2.142-1.598-2.142h-1.258c-.527 2.669-1.496 6.851-2.89 9.315l-2.634-1.257zm12.647-3.841c-.051-3.587-.985-5.524-1.988-6.952l2.328-1.122c.901 1.207 2.228 3.281 2.482 7.598l-2.822.476zM54.075 20.65c-.561 1.36-1.869 4.861-2.176 5.779.562-.374 1.003-.527 1.666-.527 2.754 0 2.737 2.482 2.737 3.774v1.104c0 .561.085 1.258.918 1.258.391 0 1.07-.068 1.529-1.785.323-1.207.442-2.176.442-3.366l2.635.765c-.137 2.414-.544 7.105-4.896 7.105-2.754 0-3.298-1.989-3.298-3.569v-.799c0-1.394 0-1.921-.816-1.921-1.104 0-1.768 1.105-2.312 2.431-.238.833-.493 1.751-.969 3.91l-2.805-.884c.255-.918 2.176-7.445 3.349-10.811.119-.323.799-2.244 1.003-3.196l2.993.732zM63.783 34.079c1.547-4.131 1.921-6.018 2.566-9.519h-2.142v-2.533h2.482c.067-.629.085-.969.152-1.904l2.805.102c-.102.85-.119.986-.237 1.802h3.739v2.533h-4.147c-.663 3.671-1.581 7.632-2.481 10.335l-2.737-.816zM72.707 30c-.441.544-.492.901-.492 1.088 0 .748.68 1.003 2.924 1.003.391 0 1.92 0 3.195-.153l.051 2.668c-.697.034-1.326.051-2.635.051-2.635 0-3.79-.187-4.827-.816-.697-.442-1.224-1.241-1.224-2.176 0-1.173.629-2.091.917-2.499l2.091.834zm5.406-2.788a25.025 25.025 0 0 0-1.904-.068c-1.887 0-3.025.204-4.352.697l-.952-2.261c2.159-.884 3.434-1.037 7.208-1.02v2.652zM87.939 20.65c-.561 1.36-1.869 4.861-2.176 5.779.562-.374 1.003-.527 1.666-.527 2.754 0 2.736 2.482 2.736 3.774v1.104c0 .561.085 1.258.918 1.258.392 0 1.071-.068 1.53-1.785.323-1.207.442-2.176.442-3.366l2.634.765c-.136 2.414-.544 7.105-4.896 7.105-2.753 0-3.297-1.989-3.297-3.569v-.799c0-1.394 0-1.921-.816-1.921-1.104 0-1.768 1.105-2.312 2.431-.238.833-.493 1.751-.969 3.91l-2.805-.884c.255-.918 2.176-7.445 3.349-10.811.119-.323.799-2.244 1.003-3.196l2.993.732zM101.506 20.616c-.187.986-.663 3.638-.663 7.819 0 3.4.307 5.27.459 6.068l-2.838.187c-.153-.884-.408-2.516-.408-5.779 0-2.856.17-5.677.595-8.499l2.855.204zm4.386 7.429c-.578.782-.815 1.479-.815 1.92 0 1.105 1.258 1.241 2.753 1.241.527 0 2.584-.034 4.046-.204l.051 2.753c-.646.085-1.598.17-3.11.17-3.604 0-6.238-.51-6.238-3.536 0-.595.085-1.615.9-2.992l2.413.648zm5.712-6.477v2.652h-8.517v-2.652h8.517zM47.777 51.892c-.476.493-.765.731-1.139 1.054l-.782-3.11c.782-.731 2.414-2.243 3.366-6.392l2.55.238c-.188.833-.544 2.38-1.343 4.198v11.694h-2.652v-7.682zm8.364-8.245a17.477 17.477 0 0 1-.493 1.887h6.579v2.517h-5.032v1.614h4.675v2.448h-4.675v1.648h4.675v2.498h-4.675v3.314h-2.651V48.135c-1.139 2.143-2.176 3.077-2.72 3.57l-1.189-2.618c1.359-1.309 2.516-3.383 2.957-5.66l2.549.22zM66.852 49.172l-2.788.034v-2.567h2.788v-2.396h2.805a185.861 185.861 0 0 0-.085 3.077c1.088-.97 2.516-1.972 4.386-1.972 2.975 0 2.906 2.686 2.855 4.131l-.085 2.77c0 .256-.051 1.752-.051 1.904 0 1.003 0 1.632 2.346 1.479l-.629 2.721c-3.757-.086-4.556-1.021-4.556-3.91 0-.307.034-1.292.068-2.142l.102-2.618c.034-.68.051-1.547-.867-1.547-.73 0-2.022.527-3.654 2.533-.017 1.207-.034 2.057-.034 3.383 0 2.601.051 3.909.103 4.725h-2.754c0-.799.017-3.076.034-4.623-.493.782-.952 1.496-1.972 2.635l-1.275-2.771c1.733-1.581 2.754-3.11 3.264-3.876v-.97zM92.062 46.486c-.459.306-1.224.833-3.569 2.601.459-.085 1.003-.187 1.581-.187 1.955 0 4.76 1.088 4.76 4.623 0 3.281-2.602 5.32-6.392 5.32-3.688 0-4.675-1.818-4.675-3.06 0-1.563 1.394-2.805 3.298-2.805 1.768 0 3.434 1.071 4.113 2.702 1.003-.799 1.003-1.887 1.003-2.09 0-1.666-1.394-2.516-3.213-2.516-2.617 0-4.402 1.513-6.901 3.875l-1.529-2.277a113.822 113.822 0 0 0 7.055-5.711c-1.564.102-2.278.135-5.117.203v-2.635c1.87.018 5.134.051 9.587-.119v2.076zm-5.048 8.55c-.425 0-.918.222-.918.663 0 .969 1.529 1.037 2.04 1.037.458 0 .714-.051.917-.085-.425-1.003-1.088-1.615-2.039-1.615z"/></g></svg>