<?xml version="1.0" encoding="utf-8"?>
<!-- Generator: Adobe Illustrator 22.1.0, SVG Export Plug-In . SVG Version: 6.00 Build 0)  -->
<svg version="1.1" xmlns="http://www.w3.org/2000/svg" xmlns:xlink="http://www.w3.org/1999/xlink" x="0px" y="0px"
	 viewBox="0 0 140 80" style="enable-background:new 0 0 140 80;" xml:space="preserve">
<style type="text/css">
	.st0{enable-background:new    ;}
	.st1{fill-rule:evenodd;clip-rule:evenodd;fill:#FFBE00;}
	.st2{fill:#FFFFFF;}
	.st3{display:none;fill:#FFFFFF;}
	.st4{fill-rule:evenodd;clip-rule:evenodd;fill:#FFFFFF;}
</style>
<g id="パス_1_" class="st0">
	<g id="パス">
		<g>
			<path class="st1" d="M134.6-0.1H6.6c-3.3,0-6,2.7-6,6v68c0,3.3,2.7,6,6,6h128c3.3,0,6-2.7,6-6v-68C140.6,2.6,137.9-0.1,134.6-0.1
				z"/>
		</g>
	</g>
</g>
<g id="_x301C_">
	<g>
		<path class="st2" d="M119.5,40.4c-1.2,1.5-2.6,1.6-3.3,1.6c-1,0-1.4-0.2-2.7-0.9c-1.1-0.6-1.4-0.6-1.9-0.6c-1.3,0-1.9,0.8-2.2,1.1
			l-1.1-1.1c1.2-1.6,2.9-1.6,3.3-1.6c1,0,1.4,0.2,2.8,0.9c0.8,0.4,1.1,0.6,1.7,0.6c1.3,0,1.9-0.8,2.2-1.1L119.5,40.4z"/>
	</g>
</g>
<g id="_xA5_">
	<g>
		<path class="st2" d="M29.5,34.8l-2.8,5h2v1.5h-2.4v1.2h2.4V44h-2.4v2h-2.4v-2h-2.5v-1.5h2.5v-1.2h-2.5v-1.5h2l-2.7-5h2.5l1.9,4.5
			h0c0-0.1,0.1-0.3,0.3-0.7l1.6-3.8H29.5z"/>
	</g>
	<path class="st3" d="M50.9,51.7c-3.8,0-7.3-2.4-7.3-7.1v-9c0-4.7,3.6-7.1,7.3-7.1c3.8,0,7.3,2.4,7.3,7.1v9
		C58.2,49.3,54.7,51.7,50.9,51.7z M53,35.6c0-1.6-1-2.4-2.1-2.4s-2.1,0.8-2.1,2.4v9c0,1.6,1,2.3,2.1,2.3s2.1-0.7,2.1-2.3V35.6z
		 M26.8,39.6h1.3v1.2h-1.9l-0.4,0.8v0.8h2.3v1.2h-2.3V46h-1.6v-2.4h-2.3v-1.2h2.3v-0.8l-0.4-0.8h-1.9v-1.2h1.3L21,35.3h1.8L25,40
		l2.2-4.7H29C29,35.3,26.8,39.6,26.8,39.6z M25,51.1c-6.1,0-11-4.9-11-11s4.9-11,11-11c6.1,0,11,4.9,11,11S31.1,51.1,25,51.1z
		 M25,30.6c-5.2,0-9.5,4.2-9.5,9.5c0,5.2,4.4,9.5,9.6,9.5c5.2,0,9.4-4.3,9.4-9.5C34.5,34.9,30.2,30.6,25,30.6z"/>
</g>
<g id="_x31_500">
	<g>
		<path class="st2" d="M48.6,51h-4.5V33.6L41,35.7v-4.3l3.6-2.4h4V51z"/>
		<path class="st2" d="M56.5,41.3h-4V28.9H65V33h-8.2v3.8c0.6-0.6,1.6-1.2,3.3-1.2c3.4,0,5.8,2.6,5.8,7.9c0,5.2-2.4,7.8-6.9,7.8
			c-3.7,0-6.8-2.1-7.2-6h4.4c0.4,1.4,1.2,2.2,2.6,2.2c1.6,0,2.6-1.2,2.6-3.8c0-2.7-0.8-4.1-2.6-4.1C57.6,39.6,56.9,40.3,56.5,41.3z"
			/>
		<path class="st2" d="M83.4,44.2c0,5-3.5,7-7.4,7c-4,0-7.4-2.1-7.4-7v-8.6c0-5.2,3.5-7,7.4-7c4,0,7.4,1.9,7.4,7V44.2z M76,32.4
			c-2,0-3,1.3-3,3.6v7.8c0,2.4,1,3.6,3,3.6c2,0,2.9-1.3,2.9-3.6v-7.8C78.9,33.7,77.9,32.4,76,32.4z"/>
		<path class="st2" d="M101.1,44.2c0,5-3.5,7-7.4,7s-7.4-2.1-7.4-7v-8.6c0-5.2,3.5-7,7.4-7s7.4,1.9,7.4,7V44.2z M93.7,32.4
			c-2,0-3,1.3-3,3.6v7.8c0,2.4,1,3.6,3,3.6c2,0,2.9-1.3,2.9-3.6v-7.8C96.7,33.7,95.7,32.4,93.7,32.4z"/>
	</g>
</g>
<g id="複合パス_1_" class="st0">
	<g id="複合パス">
		<g>
			<path class="st4" d="M25,29c-6.1,0-11,4.9-11,11c0,6.1,4.9,11,11,11s11-4.9,11-11C36,33.9,31.1,29,25,29z M25.1,49.5
				c-5.2,0-9.6-4.3-9.6-9.6c0-5.2,4.3-9.4,9.5-9.4c5.2,0,9.5,4.2,9.5,9.4C34.5,45.2,30.3,49.5,25.1,49.5z"/>
		</g>
	</g>
</g>
<g id="_xFF08_税抜_xFF09_">
	<g>
		<path class="st2" d="M105.9,73.9c-1.1-1.3-1.7-3-1.7-4.7s0.6-3.4,1.7-4.7h1.3c-1.1,1.4-1.7,3-1.7,4.7c0,1.7,0.6,3.4,1.7,4.7H105.9
			z"/>
		<path class="st2" d="M112.7,70.4l-0.5,1c-0.2-0.3-0.3-0.5-0.6-1.1v3.6h-1.4v-3.2c-0.2,0.5-0.4,0.9-1,1.7l-0.5-1.8
			c0.6-0.7,1.1-1.4,1.4-2.3h-1.2V67h1.4v-0.8c-0.5,0-0.8,0.1-1.2,0.1l-0.2-1.3c0.4,0,2-0.1,3.3-0.5l0.5,1.3c-0.3,0.1-0.5,0.1-1,0.2
			v1h0.8v1.4h-0.8c0.1,0.2,0.5,1,1.1,1.6v-3.5h0.7c-0.1-0.1-0.3-0.8-0.8-1.6l1.5-0.4c0.4,0.7,0.7,1.3,0.8,1.8l-0.9,0.2h1.7
			c0.4-0.6,0.8-1.6,0.9-2l1.5,0.4c-0.1,0.3-0.3,0.7-0.8,1.6h0.7v3.9h-1.3v1.9c0,0.1,0,0.2,0.2,0.2c0.4,0,0.4,0,0.4-1.2l1.2,0.3
			c-0.1,1.8-0.2,2.3-1,2.3h-1.2c-0.7,0-0.9-0.4-0.9-0.9v-2.6h-0.5c-0.1,1.8-0.7,2.8-2.2,3.6l-0.9-1.3c1.5-0.7,1.7-1.6,1.7-2.4H112.7
			z M114.1,67.8V69h2.5v-1.2H114.1z"/>
		<path class="st2" d="M122.7,72.9c0,1-0.5,1-1,1h-1.3l-0.3-1.5h0.9c0.2,0,0.2,0,0.2-0.3v-1.4c-0.4,0.1-0.7,0.2-1.1,0.3l-0.2-1.5
			c0.3-0.1,0.7-0.1,1.3-0.3v-1.8H120v-1.4h1.2v-1.6h1.5v1.6h0.7v-0.5h1.2c0-0.3,0-0.6,0-1.1h1.5c0,0.4,0,0.6,0,1.1h3.5v1.4H126
			c0,0.4,0,0.6-0.1,0.8h3.1v1.3c-0.1,0.5-0.3,1.4-1,2.5c0.7,0.6,1.2,0.8,1.6,1l-0.8,1.4c-0.6-0.4-1.2-0.7-1.8-1.2
			c-0.8,0.8-1.5,1-1.9,1.2l-0.8-1.2c-0.4,0.6-0.6,0.9-0.8,1.2L122.7,72.9z M123.5,67.1v0.4h-0.8v1.4c0.4-0.1,0.5-0.2,0.9-0.3l0,1.4
			c-0.2,0.1-0.4,0.2-0.9,0.3v2.3c1.5-2,1.7-3.6,1.8-5.6H123.5z M124.6,72.6c0.3-0.1,0.9-0.4,1.6-1c-0.4-0.6-0.5-1.1-0.6-1.4
			C125.4,70.7,125.2,71.6,124.6,72.6z M125.7,69.2c0,0.1,0,0.3-0.1,0.6l0.9-0.4c0.1,0.3,0.2,0.7,0.6,1.2c0.4-0.6,0.5-1.1,0.6-1.4
			H125.7z"/>
		<path class="st2" d="M131.2,73.9c1.1-1.3,1.7-3,1.7-4.7c0-1.8-0.6-3.4-1.7-4.7h1.3c1.1,1.3,1.7,3,1.7,4.7s-0.6,3.4-1.7,4.7H131.2z
			"/>
	</g>
</g>
</svg>
