<svg preserveAspectRatio="none" xmlns="http://www.w3.org/2000/svg" width="80" height="24" viewBox="0 0 80 24"><path fill-rule="evenodd" clip-rule="evenodd" fill="#FFF" d="M6 23.5A5.506 5.506 0 0 1 .5 18V6C.5 2.967 2.967.5 6 .5h68c3.032 0 5.5 2.467 5.5 5.5v12c0 3.032-2.468 5.5-5.5 5.5H6z"/><path fill="#1992D4" d="M74 1c2.757 0 5 2.243 5 5v12c0 2.757-2.243 5-5 5H6c-2.757 0-5-2.243-5-5V6c0-2.757 2.243-5 5-5h68m0-1H6C2.69 0 0 2.69 0 6v12c0 3.311 2.69 6 6 6h68c3.311 0 6-2.689 6-6V6c0-3.31-2.689-6-6-6z"/><g><g fill="#1992D4"><path d="M15.31 9.941c-.095.143-.133.219-.238.57-.437 1.445-1.112 2.729-1.948 3.67-.875.998-1.921 1.739-3.385 2.404-.266-.475-.39-.637-.808-.998.95-.38 1.483-.665 2.082-1.111 1.359-1.018 2.253-2.311 2.775-4.012l-2.861.038a9.178 9.178 0 0 1-2.225 2.443c-.285-.39-.428-.513-.922-.817 1.084-.741 1.768-1.502 2.462-2.757.295-.542.447-.922.485-1.265l1.302.267c-.076.095-.076.104-.19.342-.171.381-.238.523-.371.771.104-.01.257-.01.456-.02l2.082-.028c.247 0 .371-.009.476-.028a5.213 5.213 0 0 0-.656-1.093l.761-.266c.352.438.513.713.731 1.227l-.503.18.495.483zm.408-.722a6.107 6.107 0 0 0-.713-1.207l.742-.285c.333.409.523.723.732 1.179l-.761.313zM19.99 8.554c-.038.266-.038.266-.095 2.129-.066 1.854-.275 2.929-.77 3.907-.323.656-.685 1.141-1.312 1.759-.37-.476-.513-.618-.96-.922.466-.38.694-.638.979-1.094.685-1.093.903-2.319.903-4.981 0-.523 0-.608-.038-.865l1.293.067zm2.519-.115c-.047.275-.057.438-.066.903l-.048 5.409c.666-.314 1.046-.6 1.455-1.084.437-.514.713-1.036.931-1.74.333.428.457.551.894.894-.39.94-.885 1.654-1.512 2.215-.542.466-1.036.751-2.025 1.141-.209.076-.285.114-.409.171l-.608-.646c.066-.275.076-.484.085-1.008l.047-5.361v-.285c0-.237-.009-.447-.038-.627l1.294.018zM27.076 11.614c.418.058.599.067 1.54.067h5.066c.941 0 1.122-.009 1.54-.067v1.321c-.38-.047-.484-.047-1.549-.047h-5.048c-1.065 0-1.169 0-1.549.047v-1.321zM41.719 9.01c.172 0 .314 0 .523-.019a1.045 1.045 0 0 1 2.092.019 1.05 1.05 0 0 1-1.037 1.055c-.02 0-.037 0-.104-.009-.334 1.283-.732 2.243-1.283 3.07-.58.875-1.408 1.673-2.368 2.301-.542.361-.989.589-1.807.94-.266-.513-.39-.693-.836-1.131.836-.266 1.378-.514 2.082-.97 1.483-.96 2.415-2.3 2.88-4.145h-4.525c-.637 0-.855.01-1.197.057V8.943c.371.057.57.067 1.217.067h4.363zm1.027 0c0 .295.246.542.541.542s.543-.247.543-.542a.536.536 0 0 0-.543-.542.547.547 0 0 0-.541.542zM53.158 10.132c-.086.181-.094.237-.143.522-.162 1.093-.305 1.626-.598 2.301-.467 1.093-1.227 1.939-2.35 2.623-.57.353-1.064.57-1.891.856-.219-.485-.334-.656-.762-1.132.904-.219 1.426-.418 2.025-.789 1.379-.855 2.102-2.062 2.281-3.812h-4.639v1.226c0 .294.01.551.029.76h-1.275c.029-.237.049-.532.049-.798v-1.378c0-.399-.01-.646-.039-.903.334.038.504.047 1.027.047h1.863v-.816c0-.304-.01-.476-.047-.694h1.32a4.553 4.553 0 0 0-.047.685v.817h1.711c.703 0 .703 0 .932-.076l.554.561zM58.914 15.075h1.939c.445 0 .617-.01.883-.058v1.064a7.562 7.562 0 0 0-.883-.037h-4.896c-.428 0-.617.009-.885.037v-1.064c.268.048.438.058.875.058h1.863v-3.062h-1.273c-.352 0-.551.01-.875.057v-1.093c.258.048.484.066.865.066h3.736c.398 0 .607-.019.875-.066v1.074a6.537 6.537 0 0 0-.865-.038h-1.359v3.062zM67.805 10.569c-.027.181-.027.19-.037.77-.039 1.626-.295 2.538-.941 3.365-.57.731-1.264 1.217-2.453 1.711-.246-.513-.371-.685-.75-1.083.77-.229 1.197-.438 1.662-.809.971-.77 1.275-1.588 1.275-3.384 0-.285-.01-.371-.049-.57h1.293zm3.859-1.198c-.133.162-.133.171-.379.666a6.044 6.044 0 0 1-1.465 1.911 5.914 5.914 0 0 1-1.141.789c-.285-.399-.428-.542-.855-.865.637-.285.998-.504 1.389-.875.389-.361.684-.751.902-1.208h-4.99c-.666 0-.904.01-1.293.058V8.658c.361.057.656.076 1.311.076h4.963c.57 0 .656-.01.922-.086l.636.723z"/></g></g></svg>