<svg preserveAspectRatio="none" xmlns="http://www.w3.org/2000/svg" width="80" height="24" viewBox="0 0 80 24"><path fill-rule="evenodd" clip-rule="evenodd" fill="#FFF" d="M6 23.5A5.506 5.506 0 0 1 .5 18V6C.5 2.967 2.967.5 6 .5h68c3.032 0 5.5 2.467 5.5 5.5v12c0 3.032-2.468 5.5-5.5 5.5H6z"/><path fill="#F3AB00" d="M74 1c2.757 0 5 2.243 5 5v12c0 2.757-2.243 5-5 5H6c-2.757 0-5-2.243-5-5V6c0-2.757 2.243-5 5-5h68m0-1H6C2.69 0 0 2.69 0 6v12c0 3.311 2.69 6 6 6h68c3.311 0 6-2.689 6-6V6c0-3.31-2.689-6-6-6z"/><g><g fill="#F3AB00"><path d="M20.88 10.569c-.029.181-.029.19-.038.77-.038 1.626-.295 2.538-.941 3.365-.57.731-1.264 1.217-2.453 1.711-.247-.513-.371-.685-.751-1.083.77-.229 1.198-.438 1.664-.809.97-.77 1.274-1.588 1.274-3.384 0-.285-.009-.371-.047-.57h1.292zm3.859-1.198c-.133.162-.133.171-.38.666a6.027 6.027 0 0 1-1.464 1.911c-.38.333-.694.542-1.141.789-.285-.399-.428-.542-.855-.865.637-.285.998-.504 1.388-.875.39-.361.684-.751.903-1.208h-4.991c-.666 0-.903.01-1.292.058V8.658c.361.057.656.076 1.312.076h4.962c.57 0 .656-.01.922-.086l.636.723zM31.711 9.01c.171 0 .313 0 .522-.019a1.046 1.046 0 0 1 2.092.019c0 .58-.466 1.055-1.036 1.055-.02 0-.038 0-.104-.009-.333 1.283-.732 2.243-1.284 3.07-.58.875-1.407 1.673-2.367 2.301-.542.361-.989.589-1.807.94-.266-.513-.39-.693-.836-1.131.836-.266 1.378-.514 2.082-.97 1.483-.96 2.415-2.3 2.88-4.145h-4.525c-.637 0-.855.01-1.197.057V8.943c.37.057.57.067 1.217.067h4.363zm1.026 0c0 .295.247.542.542.542s.542-.247.542-.542a.536.536 0 0 0-.542-.542.548.548 0 0 0-.542.542zM37.542 8.43c-.038.267-.038.352-.038.856v2.624c0 .476 0 .599.038.837h-1.303a6.96 6.96 0 0 0 .048-.856V9.276c0-.485-.01-.608-.038-.856l1.293.01zm4.315.009c-.038.238-.047.342-.047.884v1.284c-.01 1.483-.076 2.282-.248 2.88-.275.95-.884 1.663-1.872 2.215-.504.285-.979.476-1.854.732-.171-.466-.266-.628-.666-1.132.932-.181 1.483-.38 2.054-.76.894-.59 1.207-1.17 1.312-2.425.038-.408.048-.827.048-1.587V9.343c0-.485-.01-.685-.048-.903h1.321zM47.09 8.183a7.71 7.71 0 0 0-.219.532c-.152.409-.152.409-.646 1.521v5.267c0 .446.019.827.066 1.179H45.15c.047-.361.066-.685.066-1.179v-2.71c0-.237 0-.285.028-1.083-.333.446-.57.741-.913 1.093a4.5 4.5 0 0 0-.503-1.112c.703-.637 1.321-1.53 1.806-2.624.209-.495.342-.884.399-1.255l1.057.371zm1.549 2.034a10.336 10.336 0 0 1-1.559 2.32 3.84 3.84 0 0 0-.685-.894c.723-.742 1.188-1.464 1.597-2.424.238-.57.381-1.045.428-1.378l1.074.313c-.095.229-.123.313-.189.504-.143.399-.152.428-.238.637h2.586c.466 0 .761-.019 1.026-.057v1.026a10.086 10.086 0 0 0-1.026-.047h-1.807v1.217h1.55c.399 0 .656-.019.941-.057v1.026a7.297 7.297 0 0 0-.95-.057h-1.541v1.217h1.56c.409 0 .665-.01.95-.058v1.037a7.213 7.213 0 0 0-.95-.058h-1.56v1.093c0 .57.02.875.067 1.142h-1.15c.048-.276.057-.562.057-1.142v-5.361h-.181zM62.227 11.244c-.058.143-.058.143-.21.503-.418 1.027-.798 1.721-1.283 2.376.181.333.371.599.57.817.162.172.371.343.428.343.038 0 .076-.058.124-.181.066-.219.066-.219.181-1.112.323.323.446.418.855.637-.219 1.283-.552 1.845-1.074 1.845-.485 0-1.235-.637-1.787-1.531-.713.704-1.454 1.246-2.301 1.664-.295-.438-.399-.552-.723-.827a7.138 7.138 0 0 0 2.558-1.749c-.399-.979-.608-2.12-.713-3.793h-2.947c-.01.912-.01.912-.02 1.255h1.75c.332 0 .475-.01.675-.038-.019.171-.038.437-.058.808-.095 1.712-.151 2.216-.313 2.614-.151.381-.494.523-1.226.523-.267 0-.419-.01-.723-.029a3.572 3.572 0 0 0-.248-1.008c.504.067.646.076.923.076.294 0 .38-.057.428-.294.076-.333.124-.951.143-1.721h-1.388c-.066 1.083-.152 1.739-.295 2.386-.171.761-.361 1.188-.779 1.854a3.5 3.5 0 0 0-.827-.808c.333-.514.532-.96.655-1.502.19-.799.285-2.063.285-3.755 0-.732-.009-.97-.057-1.35.342.029.732.047 1.227.047h2.757c-.01-.076-.01-.323-.028-.741-.01-.352-.01-.39-.048-.599h1.131c-.028.2-.047.589-.047.903v.438h1.255a4.528 4.528 0 0 0-.837-.875l.731-.466c.438.371.6.533.961.999l-.494.342h.285c.504 0 .76-.009 1.008-.057v1.045a12.387 12.387 0 0 0-1.16-.047H59.86c.085 1.245.219 2.12.438 2.842.475-.77.798-1.559.912-2.224l1.017.39z"/></g></g></svg>