<svg preserveAspectRatio="none" xmlns="http://www.w3.org/2000/svg" width="80" height="24" viewBox="0 0 80 24"><path fill-rule="evenodd" clip-rule="evenodd" fill="#FFF" d="M6 23.5A5.506 5.506 0 0 1 .5 18V6C.5 2.967 2.967.5 6 .5h68c3.032 0 5.5 2.467 5.5 5.5v12c0 3.032-2.468 5.5-5.5 5.5H6z"/><path fill="#DA3250" d="M74 1c2.757 0 5 2.243 5 5v12c0 2.757-2.243 5-5 5H6c-2.757 0-5-2.243-5-5V6c0-2.757 2.243-5 5-5h68m0-1H6C2.69 0 0 2.69 0 6v12c0 3.311 2.69 6 6 6h68c3.311 0 6-2.689 6-6V6c0-3.31-2.689-6-6-6z"/><g><g fill="#DA3250"><path d="M22.981 8.753c-.104.181-.143.257-.333.685-.599 1.417-.97 2.139-1.34 2.69a22.818 22.818 0 0 1 2.12 2.016l-.913.979c-.494-.646-1.064-1.235-1.93-2.006a10.937 10.937 0 0 1-1.483 1.588c-.685.599-1.293 1.026-2.262 1.568-.257-.456-.409-.627-.837-.988 1.055-.522 1.711-.96 2.462-1.645a9.632 9.632 0 0 0 1.208-1.293 17.063 17.063 0 0 0-2.519-1.711l.836-.837a19.39 19.39 0 0 1 1.569 1.008c.713.513.713.513.789.561.608-.998 1.217-2.376 1.34-3.061l1.293.446zM25.371 11.614c.418.058.599.067 1.54.067h5.067c.941 0 1.122-.009 1.54-.067v1.321c-.38-.047-.485-.047-1.55-.047H26.92c-1.064 0-1.169 0-1.549.047v-1.321zM37.808 8.554c-.038.266-.038.266-.095 2.129-.067 1.854-.276 2.929-.77 3.907-.323.656-.685 1.141-1.312 1.759-.371-.476-.513-.618-.96-.922.466-.38.694-.638.979-1.094.685-1.093.903-2.319.903-4.981 0-.523 0-.608-.038-.865l1.293.067zm2.519-.115c-.047.276-.057.438-.067.904l-.047 5.409c.666-.314 1.045-.6 1.455-1.084.438-.514.713-1.036.932-1.74.332.428.455.551.893.894-.389.94-.883 1.654-1.512 2.215-.541.466-1.036.751-2.024 1.141-.209.076-.285.114-.409.171l-.608-.646c.066-.275.076-.484.086-1.008l.047-5.361v-.286c0-.237-.009-.447-.038-.627l1.292.018zM46.832 9.058c0-.466-.02-.732-.057-.989h1.17a5.92 5.92 0 0 0-.059.979v.637h2.141v-.618c0-.495-.01-.742-.059-.989h1.17a7.029 7.029 0 0 0-.057.998v.608h.779c.438 0 .789-.019 1.074-.057v1.131a10.588 10.588 0 0 0-1.074-.047h-.779v1.997h.969c.504 0 .961-.02 1.236-.066v1.159a8.799 8.799 0 0 0-1.227-.066H45.9c-.484 0-.912.02-1.217.066v-1.159c.295.047.723.066 1.217.066h.932v-1.997h-.703c-.457 0-.77.019-1.045.047v-1.13c.312.038.617.057 1.045.057h.703v-.627zm1.426 5.427a6.956 6.956 0 0 1-1.453 1.388 7.422 7.422 0 0 1-1.389.809 4.434 4.434 0 0 0-.723-.885c.666-.256 1.064-.465 1.559-.808.504-.352.742-.58 1.104-1.064l.902.56zm1.769-1.777v-1.997h-2.141v1.997h2.141zm.512 1.207c.467.542.771.808 1.312 1.15.447.285.789.446 1.465.723a3.98 3.98 0 0 0-.705.932c-.779-.381-1.141-.599-1.672-1.018-.543-.418-.818-.665-1.273-1.188l.873-.599zM56.531 12.385c-.504.514-.693.675-1.379 1.197a2.84 2.84 0 0 0-.645-.922 8.545 8.545 0 0 0 1.596-1.302 6.337 6.337 0 0 0 1.131-1.493h-1.34c-.465 0-.809.02-1.131.057V8.867c.332.038.666.057 1.141.057h1.787c.152-.39.238-.713.275-1.027l1.189.133a4.248 4.248 0 0 0-.211.532c-.037.114-.057.162-.133.361h3.395c.465 0 .799-.019 1.111-.057v1.055a9.13 9.13 0 0 0-1.111-.057h-3.822c-.17.314-.285.504-.465.799h3.25c.477 0 .713-.01.99-.038-.029.295-.039.599-.039 1.084v3.964c0 .371-.113.618-.361.77-.18.105-.531.152-1.111.152-.219 0-.4-.01-.875-.028-.047-.428-.096-.637-.248-.998.533.066.809.085 1.104.085.418 0 .475-.037.475-.266v-.723h-3.555v.809c0 .513.02.846.047 1.188h-1.121c.037-.342.057-.713.057-1.197v-3.08zm4.573-.808h-3.555v.694h3.555v-.694zm-3.555 1.539v.704h3.555v-.704h-3.555z"/></g></g></svg>