<svg xmlns="http://www.w3.org/2000/svg" viewBox="0 0 335.47 43.57"><defs><style>.cls-1{fill:#008ccf;}</style></defs><title>アセット 1</title><g id="レイヤー_2" data-name="レイヤー 2"><g id="レイヤー_2-2" data-name="レイヤー 2"><path class="cls-1" d="M172.42,22a21.21,21.21,0,1,1,42.41,0,21.21,21.21,0,1,1-42.41,0Zm21.2,11.29A11.3,11.3,0,1,0,182.53,22,11.19,11.19,0,0,0,193.62,33.27Z"/><path class="cls-1" d="M223.91,3.35A12.38,12.38,0,0,0,220.59,12v1.8h-4v7.05h4V42.91h10V20.82h4.24v-7H230.6c0-1.59.1-2.67.7-3.4,1.32-1.6,4.36-1.36,4.36-1.36V0C229.88,0,226.27.91,223.91,3.35Z"/><path class="cls-1" d="M245.26,3.35A12.38,12.38,0,0,0,241.94,12v1.8h-4v7.05h4V42.91h10V20.82h4.25v-7H252c0-1.59.1-2.67.7-3.4C254,8.77,257,9,257,9V0C251.23,0,247.62.91,245.26,3.35Z"/><rect class="cls-1" x="260.26" y="13.66" width="9.89" height="29.24"/><rect class="cls-1" x="260.27" width="9.89" height="9.01"/><path class="cls-1" d="M294.29,30.7A7,7,0,0,1,288,34.84a7.08,7.08,0,1,1,6.32-10H303a15.26,15.26,0,0,0-30.29,2.94A15.26,15.26,0,0,0,303,30.7Z"/><path class="cls-1" d="M325.67,32.64a7.17,7.17,0,0,1-5.44,2.52,7.25,7.25,0,0,1-6.9-5.14h22a15.18,15.18,0,0,0,.18-2.25,15.29,15.29,0,1,0-30.57,0,15.25,15.25,0,0,0,29.79,4.88Zm-5.44-12.21a7.19,7.19,0,0,1,6.07,3.38H314.15A7.21,7.21,0,0,1,320.23,20.43Z"/><path class="cls-1" d="M14.1,43.05l.2.21.27-.11a21.42,21.42,0,0,0,7.48-5.29c3.5-3.82,4-8.51,4.18-12.38H32V19.15H26.25V13.23H19.08v5.92H12.87V13.23H5.79v5.92H0v6.33H5.79v6.44h7.08V25.48H19.2c-.13,2.78-.25,4.55-1.53,6.59a13.11,13.11,0,0,1-6.38,5.38l-.47.2.28.44Z"/><path class="cls-1" d="M61.06,17.81l.3-.3-4.82-5-.3.26a78.34,78.34,0,0,1-23.16,14.6l-.47.18.26.44,3,5.08.18.31.33-.13a61.49,61.49,0,0,0,9.13-4.51V42.73h7.45V24.33A57,57,0,0,0,61.06,17.81Z"/><polygon class="cls-1" points="92.11 25.53 92.53 25.53 92.53 25.1 92.53 19.7 92.53 19.27 92.11 19.27 81.35 19.27 81.35 13.72 81.35 13.29 80.93 13.29 74.58 13.29 74.16 13.29 74.16 13.72 74.16 19.27 63.4 19.27 62.98 19.27 62.98 19.7 62.98 25.1 62.98 25.53 63.4 25.53 74.16 25.53 74.16 42.32 74.16 42.75 74.58 42.75 80.93 42.75 81.35 42.75 81.35 42.32 81.35 25.53 92.11 25.53"/><path class="cls-1" d="M66.81,28.45l-.39-.14-.15.38A44.08,44.08,0,0,1,61,38l-.3.42.46.23a52.46,52.46,0,0,1,5.07,2.79l.33.25.26-.32a47.14,47.14,0,0,0,5.64-10.34l.15-.4-.4-.16Z"/><path class="cls-1" d="M88.73,28.47l-.22-.28-.31.17L83.39,31l-.42.23.27.39a56.89,56.89,0,0,1,5.26,9.07l.19.46.42-.25c1-.61,4-2.2,5-2.72l.19-.1.37-.19-.19-.38A56.1,56.1,0,0,0,88.73,28.47Z"/><path class="cls-1" d="M114.69,17.41V12.83h-7.47v4.58H96.66V30h7.12V23.54h14c-.47,3.56-2.6,6.35-4,8.07l-.35.41a24.82,24.82,0,0,1-7.69,5.48l-.44.21.27.42,3.2,4.94.19.29.32-.13a26.44,26.44,0,0,0,15.3-16.5,33.89,33.89,0,0,0,.91-8.89v-.43H114.69Z"/><path class="cls-1" d="M156.88,38.71A84.36,84.36,0,0,0,147,29.35a25.23,25.23,0,0,0,4.41-12.56l0-.48H128.62v6.42H143c-2.44,6.37-7.7,11.31-15.63,14.67l-.47.2.28.44,3.22,5,.2.31.34-.16A40.85,40.85,0,0,0,143,34.53a43.89,43.89,0,0,1,8.36,8.52l.19.27,5.7-4.27Z"/><polygon class="cls-1" points="87.01 12.51 86.96 12.45 86.9 12.5 84.31 14.34 84.23 14.39 84.29 14.46 87.28 18.14 87.33 18.2 87.4 18.16 89.99 16.32 90.06 16.26 90.01 16.19 87.01 12.51"/><polygon class="cls-1" points="90.67 9.91 90.63 9.85 90.56 9.9 87.97 11.74 87.9 11.79 87.95 11.86 90.95 15.54 91 15.6 91.06 15.56 93.65 13.72 93.73 13.67 93.67 13.6 90.67 9.91"/><polygon class="cls-1" points="154.04 12.51 153.99 12.45 153.93 12.5 151.34 14.34 151.26 14.39 151.32 14.46 154.32 18.14 154.37 18.2 154.43 18.16 157.02 16.32 157.1 16.26 157.03 16.19 154.04 12.51"/><polygon class="cls-1" points="160.7 13.6 157.71 9.91 157.65 9.85 157.59 9.9 155 11.74 154.92 11.79 154.98 11.86 157.98 15.54 158.03 15.6 158.09 15.56 160.68 13.72 160.76 13.67 160.7 13.6"/></g></g></svg>