<svg preserveAspectRatio="none" viewBox="0 0 290 50" style="background-color:#ffffff00" xmlns="http://www.w3.org/2000/svg" width="290" height="50"><path d="M71.919 16.183c-5.03-2.912-10.043-3.946-15.446-2.64.038-.36.06-.724.06-1.093 0-5.639-4.568-10.205-10.202-10.205a10.15 10.15 0 0 0-5.156 1.407A14.238 14.238 0 0 0 31.635 0c-6.42 0-11.85 4.234-13.651 10.063a13.197 13.197 0 0 0-4.717-.88C5.937 9.184 0 15.122 0 22.45c0 5.518 3.37 10.246 8.163 12.246C8.163 43.147 15.017 50 23.471 50c4.107 0 7.833-1.62 10.582-4.252a10.143 10.143 0 0 0 5.133 1.394c4.14 0 7.697-2.47 9.298-6.01 6.204-1.955 10.704-7.752 10.704-14.601a15.27 15.27 0 0 0-.93-5.268c3.597-2.861 7.546-4.344 13.66-5.08z" fill="#ffbe00"/><path d="M281.098 27.975c0-2.336-1.01-6.25-5.43-6.25-4.041 0-5.683 3.725-5.935 6.25h11.365zm-11.303 6.566c.253 3.978 4.23 5.872 8.714 5.872 3.284 0 5.936-.442 8.524-1.326l1.263 6.503c-3.157 1.326-7.01 1.957-11.176 1.957-10.482 0-16.48-6.06-16.48-15.72 0-7.83 4.862-16.48 15.596-16.48 9.976 0 13.764 7.767 13.764 15.406a22.78 22.78 0 0 1-.315 3.788h-19.89zm-44.39-8.65c0-3.851-.126-7.071-.253-9.849h8.335l.442 4.293h.188c1.264-2.02 4.358-4.987 9.535-4.987 6.315 0 11.05 4.23 11.05 13.321v18.247h-9.597v-17.11c0-3.978-1.39-6.692-4.862-6.692-2.653 0-4.23 1.83-4.925 3.598-.253.631-.316 1.516-.316 2.4v17.804h-9.598V25.891zm-28.29 5.557c0 5.303 2.21 9.28 6.315 9.28 3.788 0 6.125-3.725 6.125-9.344 0-4.545-1.769-9.218-6.125-9.218-4.547 0-6.315 4.735-6.315 9.282zm22.353-.316c0 11.3-8.019 16.479-16.291 16.479-9.03 0-15.974-5.935-15.974-15.911 0-10.039 6.566-16.415 16.542-16.415 9.41 0 15.723 6.503 15.723 15.847zM176.846 7.708v8.334h6.882v7.072h-6.882v11.175c0 3.724.947 5.429 3.789 5.429 1.326 0 1.957-.063 2.84-.253l.064 7.262c-1.2.441-3.535.82-6.188.82-3.094 0-5.683-1.073-7.261-2.652-1.768-1.83-2.652-4.798-2.652-9.155V23.114h-4.104v-7.072h4.104v-5.745l9.408-2.59zM129.488 25.89c0-3.851-.126-7.071-.253-9.849h8.335l.442 4.293h.19c1.262-2.02 4.356-4.987 9.534-4.987 6.313 0 11.049 4.23 11.049 13.321v18.247h-9.597v-17.11c0-3.978-1.389-6.692-4.862-6.692-2.651 0-4.23 1.83-4.925 3.598-.253.631-.316 1.516-.316 2.4v17.804h-9.597V25.891zm-17.302 21.025V16.042h9.598v30.874h-9.598zm9.914-39.46c0 2.651-1.958 4.798-5.178 4.798-3.03 0-4.987-2.147-4.987-4.798 0-2.715 2.02-4.799 5.114-4.799 3.093 0 4.988 2.084 5.051 4.798zM86.93 29.047h.126a41.543 41.543 0 0 1 2.21-3.725l6.25-9.28h11.555l-11.05 12.5 12.63 18.373H96.841l-7.513-12.69-2.4 3.03v9.66h-9.597V2.089h9.597v26.96z"/></svg>