<svg preserveAspectRatio="none" viewBox="0 0 259 50" style="background-color:#ffffff00" xmlns="http://www.w3.org/2000/svg" width="259" height="50"><path d="M108.448 21.19zm-82.263 4.998c-.588-.044-1.07-.12-1.345-.216 0 .21.094.642.1 1.131.007.423-.071.794-.112 1.188.884-.178 2.681-.185 4.21-.198.361-.003.381.206.385.303l.005.285c.01.477.014 1.074.014 1.776 0 .704-.008 1.64-.03 2.815a6.007 6.007 0 0 1-1.34.647c-.469.155-.917.27-1.338.334a9.119 9.119 0 0 1-1.096.12c-.308.01-.51.015-.605.015a8.206 8.206 0 0 1-3.068-.59 7.627 7.627 0 0 1-2.64-1.743c-.769-.767-1.385-1.739-1.844-2.904-.462-1.168-.692-2.518-.692-4.065 0-1.526.216-2.852.646-3.977.434-1.124 1.016-2.065 1.747-2.816a6.991 6.991 0 0 1 2.521-1.685 8.174 8.174 0 0 1 3.013-.559c1.058 0 1.956.126 2.694.38.738.253 1.355.562 1.845.926.49.36.886.742 1.181 1.145.3.4.534.737.708 1.007h.316c.059-.27.153-.667.288-1.184.136-.519.364-1.12.694-1.803-1.02-.529-2.232-.949-3.632-1.265a19.106 19.106 0 0 0-4.152-.468c-1.902 0-3.556.28-4.959.835-1.404.557-2.565 1.313-3.486 2.26a8.927 8.927 0 0 0-2.046 3.3 11.728 11.728 0 0 0-.666 3.961c0 1.584.26 3.023.782 4.314a9.567 9.567 0 0 0 2.204 3.33c.948.928 2.088 1.65 3.411 2.16 1.329.506 2.79.76 4.384.76.808 0 1.553-.04 2.234-.115.684-.08 1.344-.19 1.975-.34a20.484 20.484 0 0 0 1.876-.53c.613-.206 1.967.054 1.967-.659v-7.411c0-.436-.459-.486-.459-.486h-.3c-1.184-.03-3.822.077-5.39.022zm58.524-.489c-1.238-.089-2.26-.253-2.845-.457 0 .445.203 1.363.217 2.394.012.898-.157 1.682-.24 2.508 1.875-.365 5.67-.386 8.909-.411.762-.009.802.43.81.644.004.194.007.392.013.595.02 1.01.03 2.264.03 3.754 0 1.488-.02 3.474-.059 5.96a12.26 12.26 0 0 1-2.837 1.36c-.996.331-1.939.57-2.833.717-.896.143-1.671.225-2.317.244-.653.027-1.079.034-1.279.034-2.236 0-4.403-.416-6.494-1.243a16.216 16.216 0 0 1-5.58-3.69c-1.626-1.634-2.927-3.681-3.899-6.142-.976-2.462-1.464-5.327-1.464-8.599 0-3.222.457-6.026 1.37-8.409.917-2.378 2.143-4.363 3.688-5.957 1.546-1.59 3.324-2.78 5.335-3.566a17.34 17.34 0 0 1 6.372-1.18c2.234 0 4.134.27 5.7.806 1.563.54 2.864 1.19 3.903 1.955 1.035.767 1.869 1.574 2.494 2.421.633.848 1.132 1.56 1.5 2.138h.667c.125-.578.324-1.414.61-2.511.284-1.096.77-2.367 1.464-3.816-2.156-1.117-4.718-2.004-7.683-2.669-2.966-.66-5.892-.994-8.777-.994-4.024 0-7.518.59-10.486 1.77-2.97 1.178-5.426 2.773-7.377 4.779a18.96 18.96 0 0 0-4.327 6.982c-.939 2.649-1.404 5.441-1.404 8.377 0 3.352.548 6.39 1.647 9.123 1.098 2.73 2.65 5.078 4.662 7.043 2.012 1.967 4.42 3.488 7.225 4.56 2.803 1.075 5.892 1.61 9.267 1.61 1.706 0 3.281-.078 4.722-.242a36.987 36.987 0 0 0 4.179-.717 42.2 42.2 0 0 0 3.965-1.116c1.295-.433 4.164.109 4.164-1.399V26.681c0-.924-.975-1.03-.975-1.03h-.632c-2.501-.062-8.083.167-11.405.048zm147.15 2.258c0-2.065-.027-4.236-.091-6.513a805.077 805.077 0 0 0-.212-6.702c.567.084 1.076.165 1.523.25.446.082.956.124 1.523.124a8.6 8.6 0 0 0 1.526-.123c.447-.086.932-.167 1.463-.252 0 .252-.018.653-.06 1.213a47.285 47.285 0 0 0-.095 1.767c-.017.623-.05 1.21-.088 1.77-.041.557-.06.942-.06 1.146.404-.745.912-1.479 1.52-2.204.612-.72 1.365-1.372 2.256-1.953a12.225 12.225 0 0 1 3.049-1.396c1.14-.352 2.438-.53 3.904-.53 2.477 0 4.432.397 5.85 1.18 1.424.788 2.47 1.75 3.142 2.886.668 1.141 1.085 2.329 1.25 3.568.162 1.242.241 2.297.241 3.167 0 .123-.009.476-.03 1.054-.02.58-.027 1.303-.027 2.172 0 .868-.022 1.81-.064 2.822-.04 1.018-.061 2-.061 2.951 0 .95-.01 1.809-.03 2.572a70.69 70.69 0 0 0-.03 1.648v1.362c0 .62.01 1.272.03 1.956.02.683.04 1.314.06 1.891.02.58.051.994.095 1.242a10.897 10.897 0 0 0-1.313-.28c-.426-.063-1.028-.09-1.801-.09-.815 0-1.441.027-1.888.09a10.28 10.28 0 0 0-1.339.28 229.258 229.258 0 0 0 .484-9.368c.044-1.325.061-2.454.061-3.385v-1.829c0-1.529-.05-3.03-.151-4.498-.102-1.468-.386-2.761-.854-3.878-.469-1.118-1.166-2.019-2.102-2.702-.935-.68-2.254-1.02-3.96-1.02-3.337 0-5.753 1.422-7.256 4.278-.284.537-.498 1.335-.643 2.39a40.957 40.957 0 0 0-.304 3.382c-.06 1.198-.1 2.368-.121 3.505-.023 1.14-.031 2.08-.031 2.826 0 2.44.062 4.476.184 6.112.123 1.635.222 3.03.303 4.187a64.94 64.94 0 0 0-1.431-.248 11.458 11.458 0 0 0-1.798-.122c-.695 0-1.29.04-1.8.122-.507.081-.985.166-1.432.248.083-.949.153-1.932.213-2.947a218.864 218.864 0 0 0 .333-8.065c.043-1.716.063-3.735.063-6.056zm-22.209-10.98c-1.625 0-2.984.278-4.085.837-1.099.559-2 1.273-2.712 2.14-.713.87-1.26 1.82-1.648 2.856a18.142 18.142 0 0 0-.849 3.01c-.187.974-.284 1.84-.306 2.605a67.709 67.709 0 0 0-.031 1.582c0 4.347.852 7.666 2.561 9.96 1.703 2.298 3.962 3.446 6.766 3.446 1.463 0 2.792-.31 3.99-.93 1.2-.624 2.214-1.514 3.052-2.672.832-1.156 1.483-2.55 1.95-4.185.465-1.635.698-3.485.698-5.555 0-1.2-.12-2.556-.361-4.064a14.953 14.953 0 0 0-1.374-4.281 9.37 9.37 0 0 0-2.834-3.382c-1.219-.913-2.825-1.367-4.817-1.367zm-.366-2.482c2.885 0 5.342.445 7.377 1.334 2.032.89 3.688 2.056 4.97 3.506a13.322 13.322 0 0 1 2.771 4.902c.57 1.822.855 3.682.855 5.586 0 2.482-.397 4.705-1.188 6.67-.793 1.967-1.903 3.653-3.322 5.057-1.424 1.407-3.11 2.482-5.06 3.227-1.95.747-4.086 1.117-6.403 1.117-1.624 0-3.342-.216-5.153-.65-1.805-.434-3.471-1.242-4.996-2.422-1.526-1.175-2.794-2.78-3.813-4.81-1.015-2.024-1.52-4.63-1.52-7.82 0-2.396.372-4.568 1.124-6.512.753-1.947 1.81-3.6 3.172-4.967 1.363-1.364 2.996-2.407 4.91-3.133 1.907-.725 3.997-1.085 6.276-1.085zm-35.468 2.482c-1.63 0-2.984.278-4.081.837-1.102.559-2.007 1.273-2.716 2.14a9.968 9.968 0 0 0-1.643 2.856 17.894 17.894 0 0 0-.856 3.01c-.182.974-.283 1.84-.302 2.605a68.22 68.22 0 0 0-.033 1.582c0 4.347.855 7.666 2.563 9.96 1.703 2.298 3.961 3.446 6.766 3.446 1.463 0 2.791-.31 3.994-.93 1.197-.624 2.212-1.514 3.044-2.672.837-1.156 1.485-2.55 1.954-4.185.466-1.635.7-3.485.7-5.555 0-1.2-.122-2.556-.366-4.064-.243-1.51-.7-2.938-1.371-4.281a9.391 9.391 0 0 0-2.834-3.382c-1.22-.913-2.827-1.367-4.82-1.367zm-.365-2.482c2.888 0 5.346.445 7.379 1.334 2.03.89 3.686 2.056 4.969 3.506a13.362 13.362 0 0 1 2.774 4.902c.569 1.822.851 3.682.851 5.586 0 2.482-.394 4.705-1.187 6.67-.794 1.967-1.903 3.653-3.325 5.057-1.42 1.407-3.11 2.482-5.057 3.227-1.951.747-4.086 1.117-6.404 1.117-1.624 0-3.34-.216-5.152-.65-1.808-.434-3.472-1.242-4.995-2.422-1.525-1.175-2.799-2.78-3.812-4.81-1.017-2.024-1.523-4.63-1.523-7.82 0-2.396.373-4.568 1.126-6.512.753-1.947 1.808-3.6 3.17-4.967 1.362-1.364 2.998-2.407 4.91-3.133 1.906-.725 4.001-1.085 6.276-1.085zm-19.288 5.972c-.823-.345-2.57-.724-3.517-.636-.847.078-1.625.124-2.316.373-.693.249-1.28.559-1.768.931a5.986 5.986 0 0 0-1.189 1.18c-.306.413-.54.765-.702 1.052-.205.498-.375.985-.518 1.46-.14.476-.244 1.096-.304 1.863-.06.765-.105 1.747-.122 2.946-.022 1.2-.03 2.753-.03 4.654v1.768c0 .848.019 1.602.06 2.266.04 1.075.083 1.947.124 2.608.038.66.068 1.207.09 1.643.02.432.042.826.058 1.179.024.35.035.776.035 1.271a10.284 10.284 0 0 0-1.37-.28c-.473-.063-1.11-.09-1.926-.09-.728 0-1.309.027-1.737.09-.424.065-.864.155-1.308.28a76.349 76.349 0 0 0 .516-5.77c.062-1.116.099-2.46.122-4.033.02-1.57.031-3.58.031-6.02 0-1.738-.01-3.279-.03-4.623-.024-1.343-.061-2.577-.123-3.693a252.661 252.661 0 0 0-.182-3.165c-.062-.994-.112-1.986-.154-2.98a10.3 10.3 0 0 0 1.372.28c.466.063 1.05.095 1.74.095s1.257-.031 1.705-.095c.444-.063.916-.155 1.403-.28-.242 1.739-.385 3.196-.426 4.376a81.874 81.874 0 0 0-.06 2.638c.244-.62.63-1.373 1.155-2.264.529-.89 1.22-1.726 2.072-2.514.858-.786 1.925-1.429 3.204-1.922 1.205-.468 3.85-.642 5.65-.524.382.029.272.186.219.292-.28.567-.968 1.582-1.22 2.476-.29 1.034-.235 2.224-.173 2.865.03.293-.04.449-.38.303zm-33.148 9.25c-1.284.149-3.928.756-5.273 1.19-1.602.52-2.83 1.088-3.686 1.709-.854.62-1.397 1.303-1.635 2.047a7.86 7.86 0 0 0-.35 2.357c0 .992.182 1.831.544 2.513.36.683.812 1.218 1.35 1.618.53.39 1.119.667 1.758.835.64.164 1.237.248 1.796.248.81 0 1.621-.145 2.433-.436a6.955 6.955 0 0 0 2.178-1.242 6.968 6.968 0 0 0 1.571-1.858c.405-.705.607-1.49.607-2.36v-5.663s-.006-1.11-1.293-.958zm-14.787-7.402l.257-4.036c.51-.37 1.088-.784 1.729-1.242a12.566 12.566 0 0 1 2.24-1.24 17.08 17.08 0 0 1 2.855-.931c1.043-.25 2.231-.371 3.554-.371 1.24 0 2.66.176 4.263.527 1.601.352 3.043 1.105 4.322 2.267.728.701 1.347 1.561 1.86 2.575.513 1.012.768 2.472.768 4.373 0 .457-.012 1.222-.032 2.297a183.577 183.577 0 0 1-.096 3.384 158.122 158.122 0 0 0-.093 3.318c-.024 1.034-.034 1.76-.034 2.172 0 1.366.01 2.516.034 3.443.018.931.104 1.676.254 2.233.149.563.383.961.703 1.212.323.25.78.392 1.377.372 1.23-.046 2.054-.227 2.226-.313v1.739c-.726.332-3.83 1.474-5.17 1.366-1.065-.087-2.062-.321-2.98-.959-.919-.643-1.55-1.668-1.893-3.073a38.542 38.542 0 0 1-1.663 1.518c-.6.518-1.282.987-2.05 1.396-.772.414-1.645.754-2.63 1.025-.981.27-2.092.406-3.33.406-1.666 0-3.054-.271-4.164-.809-1.113-.538-2.019-1.22-2.725-2.049-.703-.826-1.206-1.718-1.503-2.667-.302-.95-.45-1.861-.45-2.73 0-1.655.31-2.99.93-4.004a7.586 7.586 0 0 1 2.434-2.479c1.003-.643 2.144-1.13 3.427-1.46 1.28-.333 2.563-.64 3.843-.93l5.575-1.181c.9-.207 1.516-.538 1.86-.994.343-.455.513-1.115.513-1.985 0-2.109-.675-3.761-2.02-4.965-1.346-1.198-3.063-1.8-5.156-1.8-3.635 0-9.035 4.595-9.035 4.595zm-56.61 2.682C49.618 38.807 38.401 50 24.56 50 10.718 50-.5 38.807-.5 24.997-.5 11.19 10.718 0 24.56 0 38.4 0 49.618 11.19 49.618 24.997z" fill="#039"/></svg>