<svg xmlns="http://www.w3.org/2000/svg" viewBox="0 0 375.41 88.31"><defs><style>.cls-1{fill:#231815;}.cls-2{fill:#7e0e00;}.cls-3{fill:#df4356;}.cls-4{fill:#fff;}</style></defs><title>アセット 1</title><g id="レイヤー_2" data-name="レイヤー 2"><g id="レイヤー_1-2" data-name="レイヤー 1"><path class="cls-1" d="M138.75,79V48.51L125.63,68.43h-.27l-13-19.72V79H102.26V32.33h11L125.56,52l12.26-19.71h11.05V79Z"/><path class="cls-1" d="M178.57,79V75.09a14.1,14.1,0,0,1-4.46,3.29,14.7,14.7,0,0,1-6.33,1.23,16.07,16.07,0,0,1-4.76-.69,11.23,11.23,0,0,1-3.89-2.1,10.12,10.12,0,0,1-2.63-3.43,10.76,10.76,0,0,1-1-4.7v-.13a11.07,11.07,0,0,1,1.07-5.06,9.65,9.65,0,0,1,3-3.53,13.34,13.34,0,0,1,4.53-2.1,22.87,22.87,0,0,1,5.82-.7,25.61,25.61,0,0,1,4.77.4,29.65,29.65,0,0,1,4,1.07V58a6.09,6.09,0,0,0-1.93-4.86A8.57,8.57,0,0,0,171,51.51a24,24,0,0,0-5.16.5,34.84,34.84,0,0,0-4.7,1.43l-2.53-7.72a41.27,41.27,0,0,1,6.13-2.07,32.44,32.44,0,0,1,7.73-.8q8.31,0,12.12,4.07t3.79,11.32V79Zm.2-14.39a15.11,15.11,0,0,0-3-1,15.66,15.66,0,0,0-3.5-.37,9,9,0,0,0-5.13,1.27,4.15,4.15,0,0,0-1.86,3.66v.13a3.74,3.74,0,0,0,1.53,3.2,6.52,6.52,0,0,0,4,1.13,9,9,0,0,0,5.76-1.73,5.52,5.52,0,0,0,2.16-4.53Z"/><path class="cls-1" d="M196,39.33v-9h10.66v9ZM196.22,79V43.25h10.12V79Z"/><path class="cls-1" d="M215,79V30.33h10.12V79Z"/><path class="cls-1" d="M274.73,79.21h-9.12l-6.86-21.9-7,21.9H242.7l-11-36H242l5.72,21.65,6.73-21.78h8.72L269.94,65l5.86-21.71h10.05Z"/><path class="cls-1" d="M290.85,39.33v-9H301.5v9ZM291.11,79V43.25h10.13V79Z"/><path class="cls-1" d="M334.56,73.25a9.54,9.54,0,0,1-2.89,3.57,13.28,13.28,0,0,1-4.36,2.1,20.15,20.15,0,0,1-5.37.69,24.9,24.9,0,0,1-15.31-5.39L311,67.56a24.08,24.08,0,0,0,5.82,3.2,15.76,15.76,0,0,0,5.43,1.06,5.63,5.63,0,0,0,3.23-.73,2.25,2.25,0,0,0,1-1.93V69a1.91,1.91,0,0,0-.6-1.4,5,5,0,0,0-1.63-1c-.69-.28-1.47-.56-2.36-.83s-1.82-.55-2.8-.86a39,39,0,0,1-3.76-1.3,13.42,13.42,0,0,1-3.43-2,9.71,9.71,0,0,1-2.5-3,9.22,9.22,0,0,1-1-4.39V54a10.79,10.79,0,0,1,1-4.83,10.93,10.93,0,0,1,2.79-3.56,12.13,12.13,0,0,1,4.13-2.2,17.46,17.46,0,0,1,5.1-.73,23,23,0,0,1,6.89,1.1,25.48,25.48,0,0,1,6.43,3l-3.87,7a31.63,31.63,0,0,0-5.19-2.43,13.56,13.56,0,0,0-4.46-.9,4.67,4.67,0,0,0-2.8.7,2.14,2.14,0,0,0-.93,1.77v.13a1.74,1.74,0,0,0,.6,1.3,6.43,6.43,0,0,0,1.6,1.06,19.48,19.48,0,0,0,2.29,1c.87.31,1.79.62,2.77.93,1.24.4,2.51.88,3.79,1.43a16.39,16.39,0,0,1,3.47,2,10.21,10.21,0,0,1,2.53,2.93,8.37,8.37,0,0,1,1,4.2v.13A11.84,11.84,0,0,1,334.56,73.25Z"/><path class="cls-1" d="M374.79,63.37c0,.35-.06.77-.1,1.26H349.85a8.46,8.46,0,0,0,3,5.23,9,9,0,0,0,5.69,1.76,11.4,11.4,0,0,0,4.53-.86,15.47,15.47,0,0,0,4.13-2.8L373,73.09A17.86,17.86,0,0,1,366.89,78a18.89,18.89,0,0,1-8.45,1.77A20.52,20.52,0,0,1,351,78.42a17.3,17.3,0,0,1-5.93-3.8,17.49,17.49,0,0,1-3.89-5.83,19.37,19.37,0,0,1-1.4-7.49v-.13a19.85,19.85,0,0,1,1.3-7.19,18.07,18.07,0,0,1,3.63-5.93,17,17,0,0,1,5.56-4,18.86,18.86,0,0,1,14.88.14,15.55,15.55,0,0,1,5.43,4.29,18,18,0,0,1,3.2,6.19,26,26,0,0,1,1,7.3v.13C374.82,62.59,374.81,63,374.79,63.37ZM362.57,52.81a6.64,6.64,0,0,0-5.13-2.1,6.79,6.79,0,0,0-5.16,2.07,10.35,10.35,0,0,0-2.57,5.52H365A9.9,9.9,0,0,0,362.57,52.81Z"/><path class="cls-1" d="M263,8.74a38.44,38.44,0,0,0,3-6.87l3.7,1.29A49.11,49.11,0,0,1,266,10.84c2,1.37,3.79,2.75,5.23,4l-2.61,3c-1.17-1.08-2.84-2.41-4.69-3.79a24.68,24.68,0,0,1-8.25,7.08l-2.73-3a20.45,20.45,0,0,0,8-6.24,65.43,65.43,0,0,0-6-3.72l2.27-2.88C258.9,6.15,260.93,7.39,263,8.74Z"/><path class="cls-1" d="M291.87,9.4v3.78H273.3V9.4Z"/><path class="cls-1" d="M300.93,2.82V10.1a12.14,12.14,0,0,1-5.59,10.84l-2.88-2.64c4.1-2.55,4.78-5,4.78-8.36V2.82Zm6.49-.36V15.21a20.72,20.72,0,0,0,5.25-5.14l1.6,3.52a35.37,35.37,0,0,1-7.75,6.87l-2.86-1.73V2.46Z"/><path class="cls-1" d="M333.41,4.78c-.61,8.81-4.08,13.47-10.46,16.34L320.65,18c6.15-2.48,8.36-5.91,8.66-11.29h-9.47v4.75h-3.7V3.25h14.47Z"/><path class="cls-1" d="M347.38,21.16H343.5V11.4a45,45,0,0,1-6.44,3.32l-2-3.29c5.05-1.56,12.45-6.63,15.22-10.12l2.9,2.32a38.19,38.19,0,0,1-5.83,5.16Z"/><path class="cls-1" d="M373.47,18.86l-3.33,2.3a38.74,38.74,0,0,0-5.25-5.86,27.86,27.86,0,0,1-7.78,5.86l-2.37-3c5.87-2.57,10.1-7.39,11.36-11.49h-9.73V3.31h12L371,4.78a30,30,0,0,1-3.81,7.73A67.66,67.66,0,0,1,373.47,18.86ZM371.22,1.74a10.93,10.93,0,0,1,2,2.23l-1.46,1.19a11.07,11.07,0,0,0-1.94-2.23ZM373.41,0a11.14,11.14,0,0,1,2,2.21L374,3.4a9.75,9.75,0,0,0-2-2.21Z"/><path class="cls-2" d="M62.16,33.8c-5.29-4.16-52.9-4.16-58.19,0S-1.32,75.36,4,79.51a9.84,9.84,0,0,0,3.61,1.32L7,88.31l13-6c16.07,1,38.57,0,42.12-2.76C67.45,75.36,67.45,38,62.16,33.8Z"/><path class="cls-3" d="M74.55,25.53c-5.29-4.15-52.89-4.15-58.18,0s-5.3,41.56,0,45.72c3.08,2.42,20.51,3.43,35.58,3l19.54,9.07-.78-10.73a10.37,10.37,0,0,0,3.84-1.37C79.84,67.09,79.84,29.69,74.55,25.53Z"/><path class="cls-4" d="M74.54,48.39c0-11-1.46-18.11-2.51-19.74-2.08-1-11.39-2.25-26.57-2.25S21,27.69,18.89,28.65c-1.05,1.63-2.51,8.75-2.51,19.74s1.46,18.11,2.51,19.74c2.08,1,11.39,2.25,26.57,2.25,2.62,0,5,0,7.31-.11L67,76.88l-.56-7.59A23.71,23.71,0,0,0,72,68.13C73.08,66.5,74.54,59.38,74.54,48.39Z"/><path class="cls-3" d="M43.82,50.08a3.88,3.88,0,0,0,3.76-.66L61,36.5l-.25-1.38a2.6,2.6,0,0,0-3-2.11L28.67,38.13a2.61,2.61,0,0,0-2.11,3l.24,1.38Z"/><path class="cls-3" d="M50,51.92a7.33,7.33,0,0,1-7.58,1.33l-14.88-6.6,2.64,15a2.61,2.61,0,0,0,3,2.11l29.06-5.12a2.61,2.61,0,0,0,2.11-3l-2.65-15Z"/></g></g></svg>