<svg preserveAspectRatio="none" xmlns="http://www.w3.org/2000/svg" width="140" height="80" viewBox="0 0 140 80"><path fill-rule="evenodd" clip-rule="evenodd" fill="#DD2F4C" d="M6 0C2.689 0 0 2.689 0 6v68c0 3.311 2.689 6 6 6h128c3.311 0 6-2.689 6-6V6c0-3.311-2.689-6-6-6H6z"/><g fill="#FFF"><path d="M33.515 23.741a37.474 37.474 0 0 1 4.487 2.651c.731-1.309 1.479-2.702 2.193-5.065l2.855.867c-.544 1.428-1.377 3.536-2.839 5.83a35.144 35.144 0 0 1 3.417 3.094l-2.21 2.346a31.338 31.338 0 0 0-2.975-3.042c-.884 1.003-3.094 3.535-7.19 5.337l-1.734-2.158c3.026-1.326 4.794-2.499 6.867-4.879-2.261-1.683-3.773-2.481-4.606-2.924l1.735-2.057zM60.662 27.09v2.805h-14.55V27.09h14.55zM67.549 25.696c0 5.745-1.207 8.465-3.026 10.216l-2.057-2.091c1.819-1.989 2.38-4.062 2.38-7.888v-4.045h2.703v3.808zm4.606 6.459c1.088-.51 2.855-1.359 3.535-5.541l2.584 1.104c-.714 3.009-2.312 7.581-8.822 7.836v-14.09h2.703v10.691zM81.132 25.934c.578.477 1.326 1.088 2.448 2.193.441-1.513.526-2.346.595-2.975H79.33v-2.499h2.89v-2.244h2.499v2.244h2.72v2.499h-.749c-.221 1.377-.527 3.076-1.241 4.93 1.377 1.547 1.989 2.583 2.295 3.093l-2.107 1.7c-.323-.544-.697-1.224-1.479-2.312-1.155 1.733-2.38 2.89-3.399 3.773l-1.7-2.21c.901-.68 2.295-1.836 3.435-3.62-1.395-1.53-2.482-2.363-3.094-2.839l1.732-1.733zm7.989.935c1.274 2.006 1.802 3.672 2.022 4.352l-2.38 1.122c-.237-.885-.918-2.924-1.853-4.386l2.211-1.088zm5.1-6.46v2.907h1.224v2.601h-1.224v9.009c0 1.326-1.105 1.581-1.768 1.581H89.07l-.493-2.499h2.431c.578 0 .578-.203.578-.51v-7.581h-3.74v-2.601h3.74v-2.907h2.635zM104.115 24.149h-4.267v4.997c0 1.054-.204 2.618-.356 3.706-.272 1.921-.952 3.06-1.36 3.757l-2.022-1.955c.765-1.632 1.207-3.399 1.207-5.201v-7.734h6.051v-1.31h2.601v1.31h6.323v2.431h-7.377c.306.136 2.04.85 3.757 2.107l-1.581 1.938c-.815-.714-1.648-1.325-4.216-2.379l1.24-1.667zm-1.274 4.623c-.052 1.598-.392 4.93-1.259 6.697l-2.158-.951c.918-1.734 1.241-4.25 1.326-6.103l2.091.357zm.475-.866h2.516v5.762c0 .272.17.425.391.425h.766c.102 0 .255 0 .306-.271.085-.357.136-1.734.153-2.176l2.091.441c-.034.596-.188 2.839-.544 3.536a1.515 1.515 0 0 1-1.377.85h-2.924c-.578 0-1.377-.271-1.377-1.343v-7.224zm7.395-.171a27.571 27.571 0 0 1 1.903 7.105l-2.55.527c-.152-2.584-.68-4.624-1.733-6.901l2.38-.731zM37.696 51.991c-.612-1.037-1.054-1.599-1.87-2.482l1.921-1.173c.663.562 1.921 2.329 2.414 3.162l-1.785 1.325c-.102.341-.323 1.021-.969 2.295.663.646 1.139 1.088 1.462 1.547l-1.7 2.074a13.808 13.808 0 0 0-1.24-1.462c-.681.799-1.87 2.04-4.25 3.383l-1.326-2.465c.782-.34 2.38-1.054 3.773-2.635a22.724 22.724 0 0 0-1.972-1.547l1.7-1.785c.356.238.714.477 1.648 1.225.204-.426.408-.901.697-1.888l1.497.426zm-2.719-2.533c-.766 1.445-2.023 2.89-3.145 3.876L30.37 51.26c.969-.629 2.057-1.955 2.532-2.94l2.075 1.138zm2.584 9.332c2.362-2.142 3.145-4.249 3.246-8.822h-1.258v-1.699h-8.788v-2.363h3.365v-1.462h2.448v1.462h2.991v1.496h1.241v-2.958h2.38v2.958h3.264c-.034 1.717-.102 5.185-.102 5.524a53.677 53.677 0 0 1-.137 3.28c-.187 2.703-.391 4.335-2.176 4.335H42.03l-.441-2.618h1.394c.188 0 .476 0 .612-.407.374-1.14.476-6.392.493-7.548h-.918c-.119 5.933-1.666 8.602-3.52 10.642l-2.089-1.82zM48.594 55.322l-.731-2.261a28.787 28.787 0 0 0 4.437-2.057l.408 1.751h.442a25.33 25.33 0 0 0 1.003-1.088c-1.173-.918-1.649-1.309-2.21-1.632l-.85 1.122c-1.105-1.003-2.295-1.599-2.907-1.904l1.258-1.802h-1.325v-2.107h6.408v-.918h2.583v.918h6.46v2.107h-1.36l1.564 1.734c-1.292 1.02-3.043 1.818-3.247 1.903 1.581.969 2.006 1.275 3.366 2.431l-1.479 1.802h1.445v2.346h-6.8v2.924h-2.532v-2.924h-6.782v-2.346h.849zm5.932 0v-.696c-.119.017-2.074.118-2.312.136l-.102-1.207c-1.037.68-2.142 1.224-3.247 1.768h5.661zm-1.631-7.223c.119.067.255.152.374.221.322-.477.391-.612.51-.867h-4.232c.85.442 1.784.935 2.668 1.598l.68-.952zm6.22.73c-.815 1.088-1.529 1.921-3.416 3.858l1.751-.067c-.17-.307-.307-.511-.527-.867l1.768-.969c.272.391.357.526.816 1.274l.799-.935-1.088-1.904c.306-.136 1.666-.781 2.872-1.768h-5.83c-.493.833-.799 1.258-1.394 2.006.391.289.493.374.646.51a37.673 37.673 0 0 0 1.581-2.243l2.022 1.105zm-2.056 6.493h5.219c-.34-.374-.782-.815-1.904-1.648.068.136.137.289.188.425l-1.938 1.071c-.137-.392-.17-.493-.289-.766-.204.018-1.088.068-1.275.085v.833zM65.44 57.719c4.691-1.75 5.219-4.878 5.185-8.192h2.788a21.382 21.382 0 0 1-.119 1.954c1.717-.9 2.601-1.717 3.213-3.195H65.44v-2.601h14.482c-.577 4.368-2.294 6.289-5.014 7.887l-1.666-1.699c-.289 2.328-.986 5.677-6.034 8.022l-1.768-2.176zM83.172 54.014a17.539 17.539 0 0 0-1.343-4.283l2.142-.578c.782 1.462 1.207 3.127 1.496 4.317l-2.295.544zm-.204 3.909c5.813-1.309 7.496-3.501 8.584-9.366l2.635.63c-.867 3.79-2.142 8.975-9.485 10.776l-1.734-2.04zm3.994-4.742c-.255-1.343-.544-2.686-1.189-4.25l2.142-.425c.697 1.445 1.088 3.128 1.258 4.182l-2.211.493zM106.02 46.263l2.821 3.349c-.476 2.447-1.241 4.521-2.821 6.221-1.649 1.769-4.165 3.264-7.463 3.91l-1.224-2.55c7.105-1.309 8.193-5.015 8.703-8.244h-9.774v-2.686h9.758zm5.779-.034a2.315 2.315 0 0 1-2.312 2.312 2.315 2.315 0 0 1-2.312-2.312 2.304 2.304 0 0 1 2.312-2.312 2.315 2.315 0 0 1 2.312 2.312zm-3.468 0c0 .646.51 1.155 1.155 1.155a1.156 1.156 0 1 0-1.155-1.155z"/></g></svg>