<svg preserveAspectRatio="none" xmlns="http://www.w3.org/2000/svg" width="140" height="80" viewBox="0 0 140 80"><path fill-rule="evenodd" clip-rule="evenodd" fill="#DD2F4C" d="M6 0C2.689 0 0 2.689 0 6v68c0 3.311 2.689 6 6 6h128c3.311 0 6-2.689 6-6V6c0-3.311-2.689-6-6-6H6z"/><path fill="#FFF" d="M119.55 39.931c-1.151 1.511-2.627 1.643-3.298 1.643-.983 0-1.428-.239-2.651-.887-1.067-.552-1.379-.648-1.906-.648-1.331 0-1.907.78-2.159 1.14l-1.092-1.115c1.235-1.619 2.927-1.619 3.299-1.619.983 0 1.367.192 2.818.947.791.408 1.14.576 1.739.576 1.295 0 1.883-.779 2.171-1.14l1.079 1.103z"/><g fill="#FFF"><path d="M61.271 50.632c-.991.992-2.72 1.952-5.279 1.952s-4.416-.992-5.407-1.983c-1.632-1.632-1.856-3.488-1.984-5.152h5.248c.16 1.504.8 2.4 2.144 2.4.64 0 1.056-.16 1.472-.576.48-.479.672-1.312.672-2.656 0-2.527-.863-3.231-2.144-3.231-1.536 0-1.92 1.024-2.144 1.632h-4.832V29.609h13.888v4.736h-9.12v3.52c.448-.353 1.664-.896 3.072-.896 1.983 0 3.487.673 4.415 1.601 1.856 1.855 2.112 3.903 2.112 6.047-.001 2.751-.417 4.32-2.113 6.015zM73.688 52.584c-3.775 0-7.327-2.399-7.327-7.104v-8.959c0-4.704 3.552-7.104 7.327-7.104s7.327 2.399 7.327 7.104v8.959c0 4.705-3.552 7.104-7.327 7.104zm2.08-16.063c0-1.601-.96-2.368-2.08-2.368s-2.08.768-2.08 2.368v8.991c0 1.6.96 2.336 2.08 2.336s2.08-.736 2.08-2.336v-8.991zM91.479 52.584c-3.776 0-7.327-2.399-7.327-7.104v-8.959c0-4.704 3.551-7.104 7.327-7.104 3.775 0 7.327 2.399 7.327 7.104v8.959c.001 4.705-3.551 7.104-7.327 7.104zm2.081-16.063c0-1.601-.96-2.368-2.08-2.368s-2.08.768-2.08 2.368v8.991c0 1.6.96 2.336 2.08 2.336s2.08-.736 2.08-2.336v-8.991z"/></g><g fill="#FFF"><path d="M104.905 72.739c-1.1-1.339-1.739-3.008-1.739-4.737s.64-3.398 1.739-4.737h1.289c-1.119 1.359-1.688 2.969-1.699 4.737 0 1.729.61 3.408 1.699 4.737h-1.289zM111.728 69.161l-.55 1.03c-.189-.271-.35-.49-.59-1.06v3.607h-1.398V69.5c-.221.521-.42.92-1.02 1.749l-.49-1.809c.609-.649 1.06-1.439 1.379-2.279h-1.229v-1.389h1.359v-.83c-.54.051-.85.061-1.17.08l-.22-1.349c.38-.011 2.029-.08 3.318-.46l.499 1.35c-.3.079-.509.13-1.029.209v1h.83v1.389h-.779c.09.181.509.979 1.059 1.56v-3.468h.67c-.06-.141-.29-.77-.779-1.609l1.459-.42c.43.7.659 1.279.85 1.789l-.93.24h1.749c.36-.62.76-1.569.92-2.049l1.549.409c-.11.271-.29.689-.829 1.64h.68v3.907h-1.31v1.949c0 .06 0 .229.18.229.37 0 .38 0 .399-1.239l1.17.351c-.101 1.769-.18 2.288-1.05 2.288h-1.229c-.739 0-.909-.39-.909-.93V69.16h-.51c-.09 1.839-.71 2.769-2.159 3.639l-.889-1.27c1.459-.689 1.659-1.579 1.709-2.369h-.71zm1.378-2.558v1.229h2.459v-1.229h-2.459zM121.679 71.69c0 1.009-.54 1.049-.97 1.049h-1.35L119.1 71.2h.859c.19 0 .24-.03.24-.27v-1.379c-.439.119-.739.189-1.09.279l-.18-1.499c.32-.06.689-.13 1.27-.27v-1.77h-1.17v-1.399h1.17v-1.608h1.479v1.608h.669v-.47h1.159c.011-.319 0-.6-.01-1.139h1.529c0 .39 0 .579-.01 1.139h3.468v1.43h-3.528c-.029.439-.05.63-.06.77h3.148v1.349c-.1.5-.29 1.39-1.02 2.479.659.56 1.209.819 1.609.989l-.77 1.359c-.65-.36-1.229-.72-1.779-1.229a5.76 5.76 0 0 1-1.889 1.209l-.77-1.179c-.37.609-.58.879-.82 1.169l-.925-1.078zm.799-5.836v.439h-.799v1.369c.369-.109.529-.16.869-.27l.04 1.389c-.24.101-.43.17-.909.34v2.319c1.528-2.049 1.679-3.648 1.799-5.587h-1zm1.059 5.577c.27-.101.939-.36 1.619-.979a5.837 5.837 0 0 1-.64-1.409c-.129.488-.379 1.308-.979 2.388zm1.19-3.459c-.01.07-.05.33-.1.61l.869-.37c.11.32.229.67.56 1.17.42-.64.52-1.08.6-1.41h-1.929zM130.16 72.739a7.484 7.484 0 0 0 1.688-4.737c0-1.769-.569-3.378-1.688-4.737h1.289c1.1 1.339 1.739 3.009 1.739 4.737 0 1.729-.65 3.398-1.739 4.737h-1.289z"/></g><path fill="#FFF" d="M32.808 40.51h1.305v1.17h-1.904l-.391.766v.779h2.295v1.17h-2.295v2.445h-1.62v-2.445h-2.294v-1.17h2.294v-.779l-.39-.766h-1.904v-1.17h1.305l-2.205-4.35h1.77l2.25 4.711 2.22-4.711h1.755l-2.191 4.35zM31 52c-6.07 0-11-4.93-11-11s4.93-11 11-11c6.069 0 11 4.93 11 11s-4.931 11-11 11zm0-20.5c-5.24 0-9.5 4.24-9.5 9.451 0 5.209 4.37 9.549 9.61 9.549 5.239 0 9.39-4.34 9.39-9.549 0-5.211-4.26-9.451-9.5-9.451z"/></svg>