<?xml version="1.0" encoding="utf-8"?>
<!-- Generator: Adobe Illustrator 24.2.1, SVG Export Plug-In . SVG Version: 6.00 Build 0)  -->
<!DOCTYPE svg PUBLIC "-//W3C//DTD SVG 1.1//EN" "http://www.w3.org/Graphics/SVG/1.1/DTD/svg11.dtd" [
	<!ENTITY ns_extend "http://ns.adobe.com/Extensibility/1.0/">
	<!ENTITY ns_ai "http://ns.adobe.com/AdobeIllustrator/10.0/">
	<!ENTITY ns_graphs "http://ns.adobe.com/Graphs/1.0/">
	<!ENTITY ns_vars "http://ns.adobe.com/Variables/1.0/">
	<!ENTITY ns_imrep "http://ns.adobe.com/ImageReplacement/1.0/">
	<!ENTITY ns_sfw "http://ns.adobe.com/SaveForWeb/1.0/">
	<!ENTITY ns_custom "http://ns.adobe.com/GenericCustomNamespace/1.0/">
	<!ENTITY ns_adobe_xpath "http://ns.adobe.com/XPath/1.0/">
]>
<svg version="1.1" id="ad1118c2-29d6-40c8-b8a4-8a11e1ee911c" xmlns:x="&ns_extend;" xmlns:i="&ns_ai;" xmlns:graph="&ns_graphs;"
	 xmlns="http://www.w3.org/2000/svg" xmlns:xlink="http://www.w3.org/1999/xlink" x="0px" y="0px" width="140px" height="80px"
	 viewBox="0 0 140 80" style="enable-background:new 0 0 140 80;" xml:space="preserve">
<style type="text/css">
	.st0{fill-rule:evenodd;clip-rule:evenodd;fill:#DD2F4C;}
	.st1{fill:#FFFFFF;}
</style>
<metadata>
	<sfw  xmlns="&ns_sfw;">
		<slices></slices>
		<sliceSourceBounds  bottomLeftOrigin="true" height="80" width="140" x="0" y="0"></sliceSourceBounds>
	</sfw>
</metadata>
<path class="st0" d="M6,0C2.7,0,0,2.7,0,6v68c0,3.3,2.7,6,6,6h128c3.3,0,6-2.7,6-6V6c0-3.3-2.7-6-6-6H6z"/>
<g>
	<path class="st1" d="M31.2,20.6c-0.1,0.8-0.2,1.8-0.3,3h1.6c3,0,4,2,4,5.5c0,1.6-0.3,4.9-1.3,6.1c-0.7,0.8-1.7,1.3-2.8,1.3
		c-0.9,0-1.9-0.1-2.8-0.3l-0.2-2.8c0.8,0.2,1.6,0.2,2.4,0.3c0.6,0.1,1.1-0.3,1.3-0.8c0.4-1.4,0.6-2.9,0.6-4.3c0-1.7-0.4-2.2-1.6-2.2
		h-1.6c-0.5,2.4-1.5,7.4-3.1,10.1l-2.8-1.4c1.5-2.7,2.5-5.6,3-8.7h-2.5v-2.7h3c0.1-1.5,0.2-2.1,0.3-3.2L31.2,20.6z M38.3,31
		c-0.1-4.3-1.2-6.2-2.2-7.6l2.5-1.2c1.7,2.4,2.7,5.3,2.7,8.3L38.3,31z"/>
	<path class="st1" d="M50.6,21.2c-0.3,0.6-1.8,4.8-2.3,6.3c0.6-0.4,1.2-0.6,1.9-0.6c3,0,3,2.8,3,4.1v1.2c0,0.3,0,1.4,1.1,1.4
		s1.9-1,2.2-5.5l2.8,0.8c-0.4,5.6-2.3,7.6-5.3,7.6c-1.7,0-3.6-0.8-3.6-3.9v-0.9c0-1.5,0-2-0.9-2c-1.3,0-2.1,1.5-2.5,2.4
		c-0.5,1.5-0.9,3-1.2,4.5l-3-1c0.4-1.1,0.9-2.9,1.3-4c0.5-1.8,3-9.5,3.4-11.1L50.6,21.2z"/>
	<path class="st1" d="M66.9,20.8c-0.1,0.5-0.1,0.6-0.3,1.9h4.1v2.7h-4.5c-0.6,3.8-1.4,7.5-2.6,11.1l-3-0.9c1.3-3.3,2.3-6.7,2.8-10.2
		h-2.3v-2.7h2.7c0.1-0.7,0.1-1.2,0.2-2.1L66.9,20.8z M70.6,31.2c-0.4,0.4-0.7,0.9-0.8,1.5c0,1,1.1,1.1,2.9,1.1c1.3,0,2.5,0,3.8-0.2
		v2.8c-0.5,0-1,0.1-2.4,0.1c-2.7,0-4.1-0.1-5.3-0.7c-1-0.5-1.7-1.5-1.7-2.6c0-1.2,0.5-2.4,1.5-3.3L70.6,31.2z M76.2,28
		c-0.6,0-1.1-0.1-1.9-0.1c-1.7-0.1-3.3,0.2-4.9,0.8l-0.8-2.4c1.7-0.8,3.7-1.2,7.7-1.1L76.2,28z"/>
	<path class="st1" d="M86.2,21.2c-0.3,0.6-1.8,4.8-2.3,6.3c0.6-0.4,1.2-0.6,1.9-0.6c3,0,3,2.8,3,4.1v1.2c0,0.3,0,1.4,1.1,1.4
		s1.9-1,2.2-5.5l2.8,0.8c-0.4,5.6-2.3,7.6-5.3,7.6c-1.7,0-3.6-0.8-3.6-3.9v-0.9c0-1.5,0-2-0.9-2c-1.3,0-2.1,1.5-2.5,2.4
		c-0.5,1.5-0.9,3-1.2,4.5l-3-1c0.4-1.1,0.9-2.9,1.3-4c0.5-1.8,3-9.5,3.4-11.1L86.2,21.2z"/>
	<path class="st1" d="M100.5,21.2c-0.5,2.8-0.7,5.7-0.7,8.6c0,2.2,0.2,4.4,0.5,6.5l-3,0.2c-0.4-2-0.5-4-0.5-6.1
		c0-3.2,0.2-6.3,0.6-9.5L100.5,21.2z M105.3,29.3c-0.5,0.6-0.8,1.3-0.8,2c0,1.2,1.4,1.4,3.1,1.4c1.4,0,2.8-0.1,4.2-0.2l0.1,2.9
		c-1.1,0.1-2.2,0.2-3.3,0.2c-3,0-6.9-0.1-6.9-3.8c0-1.3,0.4-2.6,1.2-3.6L105.3,29.3z M111.5,22.1V25h-9.3v-2.8L111.5,22.1z"/>
</g>
<g>
	<path class="st1" d="M42.7,52c-0.3,0.3-0.6,0.7-0.9,0.9l-0.6-3.5c0-0.2,0-0.4,0.1-0.6c1.1-1.6,1.8-3.4,2.1-5.3
		c0.1-0.5,0.5-0.8,0.9-0.8l0.9,0.1c0.5,0,0.8,0.5,0.8,0.9c-0.1,1.1-0.4,2.2-0.8,3.3c0,0.1-0.1,0.2-0.1,0.3v11.6
		c0,0.5-0.4,0.9-0.9,0.9h-0.8c-0.5,0-0.9-0.4-0.9-0.9V52H42.7z M53.5,46.5v0.9H57c0.5,0,0.9,0.4,0.9,0.9v4.3c0,0.5-0.4,0.9-0.9,0.9
		h-3.1c-0.4,0-0.8,0.3-0.9,0.6c-0.1,0.4-0.2,0.7-0.3,1c-0.2,0.4,0,1,0.5,1.1c1.4,0.5,2.8,0.8,4.2,0.9c0.6,0,0.9,0.6,0.7,1.2l-0.4,1
		c-0.1,0.4-0.5,0.6-0.9,0.6c-2-0.3-3.9-0.8-5.7-1.7c-0.3-0.1-0.6-0.1-0.9,0.1c-1,0.7-2,1.2-3.2,1.5c-0.4,0.1-0.8-0.1-1-0.5l-0.4-0.9
		c-0.2-0.5,0.1-1,0.6-1.1c0.3-0.1,0.5-0.1,0.8-0.2c0.6-0.2,0.7-1,0.3-1.4c-0.1-0.1-0.1-0.2-0.2-0.3c-0.3-0.4-0.2-1,0.3-1.3l0.9-0.5
		h-0.9c-0.5,0-0.9-0.4-0.9-0.9v-4.3c0-0.5,0.4-0.9,0.9-0.9h3.5v-0.9H47c-0.5,0-0.9-0.4-0.9-0.9v-0.8c0-0.5,0.4-0.9,0.9-0.9h3.9v-1.3
		h2.6V44h4.1c0.5,0,0.9,0.4,0.9,0.9v0.7c0,0.5-0.4,0.9-0.9,0.9C57.6,46.5,53.5,46.5,53.5,46.5z M48.8,53.5c0.4,0.5,0.8,0.9,1.3,1.2
		c0.2-0.4,0.4-0.8,0.5-1.2H48.8z M50.9,49.5h-1c-0.5,0-0.9,0.4-0.9,0.9l0,0c0,0.5,0.4,0.9,0.9,0.9h0.9c0-0.3,0-0.5,0-1.2v-0.6H50.9z
		 M53.5,50.1c0,0.5,0,0.9,0,1.2h1c0.5,0,0.9-0.4,0.9-0.9l0,0c0-0.5-0.4-0.9-0.9-0.9h-1V50.1z"/>
	<path class="st1" d="M71.9,48.2v0.9c0,0.3-0.1,0.5-0.4,0.7c-0.5,0.3-1,0.7-1.4,1c-1.3,1-1.5,1.2-1.9,1.5c0.3-0.1,0.7-0.2,1.1-0.2
		c1.6,0,1.6,1.6,1.6,2.3V55c0,1,0,1.4,1.6,1.4c0.7,0,1.4,0,2-0.1c0.5,0,0.9,0.3,0.9,0.8v1c0,0.5-0.4,0.9-0.8,0.9c-0.4,0-1,0-1.7,0
		c-2.8,0-4.8-0.1-4.8-2.9v-0.8c0-0.5,0-1.1-0.9-1.1c-0.6,0-1.2,0.2-1.6,0.6c-0.3,0.3-2.4,2.4-3.5,3.6c-0.3,0.4-0.9,0.4-1.2,0
		l-0.8-0.8c-0.3-0.4-0.3-0.9,0-1.2c1.2-1.1,3.2-3,3.7-3.4c0.7-0.6,1.3-1.2,1.8-1.6c0.6-0.5,0.2-1.5-0.6-1.5L61.7,50
		c-0.5,0-0.9-0.4-0.9-0.9v-1c0-0.5,0.4-0.9,0.9-0.9h9.1C71.5,47.3,71.9,47.7,71.9,48.2z M71.2,46.4c-2.3-0.5-4.7-0.7-7-0.8
		c-0.5,0-0.9-0.4-0.8-1l0.1-0.7c0-0.4,0.4-0.8,0.9-0.8c2.5,0,4.9,0.2,7.4,0.7c0.5,0.1,0.8,0.5,0.7,1l-0.1,0.8
		C72.1,46.2,71.7,46.5,71.2,46.4z"/>
	<path class="st1" d="M89.6,44.5v1c0,0.3-0.1,0.5-0.3,0.7c-2.4,2-2.6,2.2-3.1,2.7c0.5-0.2,1.1-0.2,1.6-0.2c2.8-0.2,5.2,2,5.3,4.7
		c0,0.1,0,0.3,0,0.4c0,3-2.3,5.5-7.4,5.5c-4.7,0-4.8-2.9-4.8-3.3c0-1.9,1.8-3,3.6-3c1.6-0.1,3.1,1.1,3.2,2.7c0,0.1,0,0.2,0,0.3
		c0,0.2,0,0.4-0.1,0.6c1.5-0.5,2.4-1.3,2.4-2.7c0-1.1-0.7-2.8-3.7-2.8c-2.7,0-4.1,1.2-6.9,4c-0.4,0.4-1,0.3-1.3-0.1l-0.7-0.9
		c-0.3-0.4-0.2-0.9,0.2-1.2c1-0.8,2.1-1.8,5.9-5c0.6-0.5,0.2-1.5-0.6-1.5l-3.1,0.1c-0.5,0-0.9-0.4-0.9-0.9v-1c0-0.5,0.4-0.9,0.9-0.9
		h9C89.2,43.7,89.6,44,89.6,44.5z M85.6,56.5c0-0.7-0.5-1.3-1.2-1.4h-0.1c-0.7,0-1.2,0.3-1.2,0.9c0,0.9,1.3,1,1.7,1
		c0.2,0,0.5,0,0.7-0.1C85.6,56.8,85.6,56.6,85.6,56.5z"/>
</g>
</svg>
