<svg preserveAspectRatio="none" xmlns="http://www.w3.org/2000/svg" width="140" height="80" viewBox="0 0 140 80"><path fill-rule="evenodd" clip-rule="evenodd" fill="#1992D4" d="M6 0C2.689 0 0 2.69 0 6v68c0 3.311 2.689 6 6 6h128c3.311 0 6-2.689 6-6V6c0-3.31-2.689-6-6-6H6z"/><g fill="#FFF"><path d="M52.245 27.021V28.6h-8.546v-1.579h4.548c.33-1.479.47-2.279.649-4.018h-3.928v-1.569h5.767c-.119 1.719-.38 3.858-.759 5.587h2.269zM62.235 24.172v1.649H53.68v-1.649h8.555zM66.618 26.352h-1.609v-2.279H63.57v-1.509h1.439v-1.699h1.609v1.699h2.339v-1.719h1.419l.04 1.719h1.689v1.509h-1.569v.81c0 2.568-1.29 4.038-4.598 4.538l-.6-1.479c3.148-.35 3.618-1.609 3.618-3.058v-.81h-2.339v2.278zm4.518-6.367c.279.72.39 1.279.51 2.089l-.83.18c-.09-.849-.18-1.309-.449-2.059l.769-.21zm1.348-.03c.28.729.37 1.169.521 2.079l-.82.19c-.1-.85-.199-1.299-.47-2.049l.769-.22zM82.235 24.172v1.649H73.68v-1.649h8.555zM87.938 28.68l-.49.85c-.279-.2-.499-.35-1.139-.67-.64.41-1.39.72-2.539.93l-.53-1.24c.779-.07 1.219-.19 1.599-.34-.899-.35-1.18-.4-1.359-.44.18-.27.311-.459.6-1.079h-.84v-1.2h1.319c.119-.33.17-.53.22-.739l.39.04v-1.07c-.62.78-1.109 1.089-1.459 1.299l-.69-1.079c.34-.12.8-.33 1.54-1.02h-1.32v-1.14h.579c-.17-.589-.369-.979-.47-1.179l1.04-.37c.289.55.399.77.549 1.219l-.879.33h1.109v-1.539h1.399v1.539h1.189l-1.07-.32c.12-.2.33-.52.601-1.259l1.159.3c-.141.37-.34.78-.63 1.279h.489v1.14h-1.289c.17.17.5.479.93.74.33-.5 1.029-1.779 1.199-3.488l1.47.16c-.051.33-.101.69-.221 1.25h2.31v1.509h-.32c-.04.57-.17 2.539-.919 3.928.549.7 1.089 1.04 1.419 1.25l-.83 1.469c-.369-.26-.929-.65-1.559-1.419-.75.77-1.489 1.179-1.859 1.389l-.698-1.03zm-2.419-1.989c-.04.1-.06.15-.25.54.271.06.47.1.859.21.29-.31.39-.55.48-.75h-1.089zm2.388 0c-.09.27-.22.669-.569 1.179.13.06.3.13.749.32.38-.17 1-.49 1.6-1.149-.14-.32-.44-.969-.689-2.219-.16.23-.25.33-.41.51l-.899-1.02-.29.39c-.25-.19-.43-.32-.829-.85v1.08h-.38c-.11.32-.141.42-.19.56h2.409v1.2h-.502zm2.039-3.598c.149 1.299.5 2.119.63 2.429.329-.979.38-1.859.399-2.429h-1.029z"/></g><g fill="#FFF"><path d="M50.928 60.584c-3.776 0-7.584-2.016-7.584-7.135h5.248c0 1.6 1.023 2.399 2.336 2.399 1.376 0 2.336-.8 2.336-2.433 0-1.375-1.024-2.399-2.433-2.399h-.735v-4.544h.735c1.568 0 2.176-1.119 2.176-2.144 0-1.44-.991-2.176-2.079-2.176s-2.08.769-2.08 2.144H43.6c0-4.287 3.264-6.879 7.328-6.879 4.224 0 7.327 2.815 7.327 6.752 0 2.495-1.216 3.711-2.368 4.447 1.248.863 2.624 2.24 2.624 4.959 0 4.769-3.584 7.009-7.583 7.009zM68.688 60.584c-3.775 0-7.327-2.4-7.327-7.104v-8.959c0-4.704 3.552-7.104 7.327-7.104s7.327 2.399 7.327 7.104v8.959c0 4.704-3.552 7.104-7.327 7.104zm2.08-16.063c0-1.6-.96-2.368-2.08-2.368s-2.08.769-2.08 2.368v8.991c0 1.6.96 2.336 2.08 2.336s2.08-.736 2.08-2.336v-8.991zM86.479 60.584c-3.776 0-7.327-2.4-7.327-7.104v-8.959c0-4.704 3.551-7.104 7.327-7.104 3.775 0 7.327 2.399 7.327 7.104v8.959c.001 4.704-3.551 7.104-7.327 7.104zm2.081-16.063c0-1.6-.96-2.368-2.08-2.368s-2.08.769-2.08 2.368v8.991c0 1.6.96 2.336 2.08 2.336s2.08-.736 2.08-2.336v-8.991z"/></g><path fill-rule="evenodd" clip-rule="evenodd" fill="#FFF" d="M25.87 38c-2.931 0-5.931 2.56-5.931 4.84v3.439c0 1.65.58 4.591 2.42 6.091l-5.029 2.84S16 55.779 16 56.59v2.03c0 .76.6 1.38 1.33 1.38h17.34c.73 0 1.33-.62 1.33-1.38v-2.03c0-.811-1.33-1.38-1.33-1.38l-5.029-2.84c1.84-1.5 2.42-4.44 2.42-6.091V42.84c0-2.28-3-4.84-5.931-4.84h-.26zm-8.3 20.37v-1.45c.109-.07 5.539-3.12 5.539-3.12.461-.26.771-.75.82-1.29a1.66 1.66 0 0 0-.6-1.42c-1.359-1.1-1.811-3.54-1.811-4.811V42.84c0-1.199 2.08-3.21 4.351-3.21h.26c2.271 0 4.351 2.011 4.351 3.21v3.439c0 1.271-.451 3.711-1.811 4.811-.42.34-.641.87-.6 1.42.05.54.359 1.03.82 1.29 0 0 5.43 3.05 5.539 3.12v1.45H17.57z"/><g fill="#FFF"><path d="M109.398 47.854v1.619h-3.502v.839h3.226v1.595h-3.226v1.152c1.606.611 2.83 1.643 3.298 2.026l-1.211 1.763c-.756-.827-1.355-1.295-2.087-1.738l-.024.252c-.132 1.33-1.403 1.762-2.639 1.762-2.255 0-3.142-1.199-3.142-2.254 0-1.26 1.211-2.303 3.189-2.303.336 0 .492.023.708.06v-.72h-3.91v-1.595h3.91v-.839H99.84v-1.619h4.149v-.984h1.907v.984h3.502zm-5.409 6.367a2.84 2.84 0 0 0-.899-.155c-.66 0-1.212.3-1.212.743 0 .145.108.684 1.14.684.444 0 .972-.084.972-.743v-.529zM121.29 49.172a16.398 16.398 0 0 0-.972-.035c-.396 0-1.007.023-1.439.155-1.703.504-3.622 2.267-3.622 3.958 0 1.127.9 1.787 3.971 1.787.563 0 .839-.024 1.079-.036l-.264 2.063c-1.428-.013-2.603-.037-3.874-.36-2.53-.636-2.891-2.411-2.891-3.335 0-1.631 1.056-3.021 2.566-4.041-1.067.084-3.79.324-4.701.443l-.108-2.062c.78-.012 1.14-.036 2.531-.132 2.555-.168 4.881-.24 7.664-.324l.06 1.919zm-2.435 1.187c.539.66.911 1.332 1.343 2.242l-1.055.612c-.408-.947-.732-1.522-1.296-2.29l1.008-.564zm1.643-.767c.564.672.96 1.367 1.392 2.219l-1.067.576c-.443-.947-.708-1.439-1.344-2.268l1.019-.527z"/></g></svg>