<svg preserveAspectRatio="none" xmlns="http://www.w3.org/2000/svg" width="140" height="80" viewBox="0 0 140 80"><path fill-rule="evenodd" clip-rule="evenodd" fill="#1992D4" d="M6 0C2.689 0 0 2.69 0 6v68c0 3.311 2.689 6 6 6h128c3.311 0 6-2.689 6-6V6c0-3.31-2.689-6-6-6H6z"/><path fill="#FFF" d="M119.55 39.931c-1.151 1.511-2.627 1.644-3.298 1.644-.983 0-1.428-.24-2.651-.888-1.067-.552-1.379-.647-1.906-.647-1.331 0-1.907.78-2.159 1.139l-1.092-1.115c1.235-1.619 2.927-1.619 3.299-1.619.983 0 1.367.192 2.818.948.791.408 1.14.576 1.739.576 1.295 0 1.883-.78 2.171-1.14l1.079 1.102z"/><g fill="#FFF"><path d="M61.271 50.633c-.991.991-2.72 1.951-5.279 1.951s-4.416-.992-5.407-1.984c-1.632-1.631-1.856-3.487-1.984-5.15h5.248c.16 1.504.8 2.399 2.144 2.399.64 0 1.056-.16 1.472-.576.48-.479.672-1.312.672-2.655 0-2.528-.863-3.232-2.144-3.232-1.536 0-1.92 1.023-2.144 1.632h-4.832V29.61h13.888v4.735h-9.12v3.52c.448-.352 1.664-.896 3.072-.896 1.983 0 3.487.672 4.415 1.6 1.856 1.855 2.112 3.903 2.112 6.048-.001 2.752-.417 4.32-2.113 6.016zM73.688 52.584c-3.775 0-7.327-2.4-7.327-7.104v-8.959c0-4.704 3.552-7.104 7.327-7.104s7.327 2.399 7.327 7.104v8.959c0 4.704-3.552 7.104-7.327 7.104zm2.08-16.063c0-1.6-.96-2.368-2.08-2.368s-2.08.768-2.08 2.368v8.991c0 1.6.96 2.336 2.08 2.336s2.08-.736 2.08-2.336v-8.991zM91.479 52.584c-3.776 0-7.327-2.4-7.327-7.104v-8.959c0-4.704 3.551-7.104 7.327-7.104 3.775 0 7.327 2.399 7.327 7.104v8.959c.001 4.704-3.551 7.104-7.327 7.104zm2.081-16.063c0-1.6-.96-2.368-2.08-2.368s-2.08.768-2.08 2.368v8.991c0 1.6.96 2.336 2.08 2.336s2.08-.736 2.08-2.336v-8.991z"/></g><g fill="#FFF"><path d="M104.905 73.74c-1.1-1.34-1.739-3.01-1.739-4.738s.64-3.398 1.739-4.737h1.289c-1.119 1.359-1.688 2.968-1.699 4.737a7.5 7.5 0 0 0 1.699 4.738h-1.289zM111.728 70.162l-.55 1.029c-.189-.271-.35-.49-.59-1.061v3.609h-1.398v-3.238c-.221.52-.42.919-1.02 1.748l-.49-1.809c.609-.65 1.06-1.439 1.379-2.279h-1.229v-1.389h1.359v-.83c-.54.051-.85.061-1.17.08l-.22-1.35c.38-.01 2.029-.079 3.318-.459l.499 1.35c-.3.08-.509.129-1.029.209v1h.83v1.389h-.779c.09.18.509.98 1.059 1.56v-3.468h.67c-.06-.141-.29-.77-.779-1.609l1.459-.42c.43.699.659 1.279.85 1.789l-.93.24h1.749c.36-.62.76-1.569.92-2.049l1.549.41c-.11.27-.29.689-.829 1.639h.68v3.908h-1.31v1.948c0 .06 0 .229.18.229.37 0 .38 0 .399-1.238l1.17.35c-.101 1.769-.18 2.289-1.05 2.289h-1.229c-.739 0-.909-.391-.909-.93v-2.648h-.51c-.09 1.838-.71 2.768-2.159 3.637l-.889-1.269c1.459-.689 1.659-1.579 1.709-2.368h-.71zm1.378-2.558v1.229h2.459v-1.229h-2.459zM121.679 72.689c0 1.01-.54 1.051-.97 1.051h-1.35l-.26-1.54h.859c.19 0 .24-.03.24-.27v-1.38c-.439.121-.739.19-1.09.28l-.18-1.499c.32-.061.689-.13 1.27-.27v-1.77h-1.17v-1.398h1.17v-1.609h1.479v1.609h.669v-.471h1.159c.011-.319 0-.6-.01-1.139h1.529c0 .389 0 .579-.01 1.139h3.468v1.43h-3.528c-.029.439-.05.629-.06.77h3.148v1.35c-.1.499-.29 1.389-1.02 2.479a5.94 5.94 0 0 0 1.609.989l-.77 1.358c-.65-.359-1.229-.719-1.779-1.229a5.76 5.76 0 0 1-1.889 1.209l-.77-1.18c-.37.61-.58.88-.82 1.17l-.924-1.079zm.799-5.835v.439h-.799v1.369c.369-.109.529-.16.869-.27l.04 1.389c-.24.101-.43.17-.909.34v2.319c1.528-2.049 1.679-3.647 1.799-5.587h-1zm1.059 5.576c.27-.1.939-.359 1.619-.979a5.824 5.824 0 0 1-.64-1.41c-.129.49-.379 1.311-.979 2.389zm1.19-3.457a22.4 22.4 0 0 1-.1.609l.869-.37c.11.319.229.67.56 1.169.42-.639.52-1.079.6-1.408h-1.929zM130.16 73.74a7.49 7.49 0 0 0 1.688-4.738c0-1.77-.569-3.378-1.688-4.737h1.289c1.1 1.339 1.739 3.009 1.739 4.737s-.65 3.398-1.739 4.738h-1.289z"/></g><path fill="#FFF" d="M32.808 40.51h1.305v1.169h-1.904l-.391.766v.779h2.295v1.17h-2.295v2.445h-1.62v-2.445h-2.294v-1.17h2.294v-.779l-.39-.766h-1.904V40.51h1.305l-2.205-4.35h1.77l2.25 4.709 2.22-4.709h1.755l-2.191 4.35zM31 52c-6.07 0-11-4.93-11-11s4.93-11 11-11c6.069 0 11 4.93 11 11s-4.931 11-11 11zm0-20.5c-5.24 0-9.5 4.24-9.5 9.45s4.37 9.55 9.61 9.55c5.239 0 9.39-4.34 9.39-9.55S36.24 31.5 31 31.5z"/></svg>