<svg preserveAspectRatio="none" xmlns="http://www.w3.org/2000/svg" width="140" height="80" viewBox="0 0 140 80"><path fill-rule="evenodd" clip-rule="evenodd" fill="#1992D4" d="M6 0C2.689 0 0 2.69 0 6v68c0 3.311 2.689 6 6 6h128c3.311 0 6-2.689 6-6V6c0-3.31-2.689-6-6-6H6z"/><g fill="#FFF"><path d="M34.074 34.416c-.017-2.566-.595-5.083-1.377-7.53a27.581 27.581 0 0 1-4.929 5.626v.765c0 .442.152.476.441.476h1.7c.476 0 .85-.153.9-3.077l2.499.782c-.085 1.36-.34 3.127-.646 3.74-.544 1.088-1.632 1.088-1.717 1.088h-4.148c-.969 0-1.529-.867-1.529-1.581v-.289c-1.207.765-2.278 1.36-3.484 1.819l-1.31-2.38a14.897 14.897 0 0 0 2.159-.901l-2.176-1.36c.68-1.326 1.173-2.635 1.462-5.915l2.516.425c-.255 2.55-.68 4.946-1.462 6.663.374-.187 1.173-.629 2.295-1.461V24.54h2.499v4.539c2.312-2.38 3.978-5.287 5.048-8.414l2.499.952a23.42 23.42 0 0 1-2.125 4.488l1.768-.646c.766 2.023 1.7 5.457 1.938 8.159l-2.821.798zm-8.499-14.058c3.025.561 4.845 1.445 5.593 1.802l-1.36 2.329c-1.359-.867-3.824-1.7-5.405-1.955l1.172-2.176zM42.15 29.3c.153-.289.374-.697.442-.85h-4.165v-4.539h4.182v-.816h-4.76v-2.193h15.859v2.193h-4.793v.816h4.249v4.539h-7.581c-.102.255-.153.408-.408.85h8.602v2.159h-2.72a7.252 7.252 0 0 1-1.224 1.785c1.938.527 2.975.935 3.654 1.19l-1.955 2.278c-.68-.34-1.836-.918-3.978-1.7-1.784.918-4.93 1.479-8.703 1.547l-.85-2.414c.85.034 1.224.034 1.938.034 2.074 0 3.213-.119 4.08-.238-1.904-.527-3.417-.748-4.573-.918a22.4 22.4 0 0 0 1.326-1.564H37.73V29.3h4.42zm-1.274-2.533h1.733v-1.19h-1.733v1.19zm2.94 4.691c-.153.204-.204.289-.459.595.918.102 2.158.238 3.773.578.561-.493.799-.816 1.071-1.173h-4.385zm1.071-7.547h1.7v-.816h-1.7v.816zm0 2.856h1.7v-1.19h-1.7v1.19zm4.029 0h1.768v-1.19h-1.768v1.19zM63.688 22.959v2.549h-3.297c-.799 3.859-1.785 6.544-2.482 8.5l-2.771-.986c.459-.918 1.632-3.264 2.516-7.514h-2.176v-2.549h2.618c.119-.986.152-1.343.17-1.887l2.839.102c-.103.731-.137.935-.255 1.785h2.838zm3.672 7.003c1.037.51 2.346 1.479 3.06 2.159l-1.513 2.566a13.344 13.344 0 0 0-1.768-1.734c-.051 2.839-2.94 2.839-3.553 2.839-2.499 0-4.113-1.292-4.113-3.281 0-1.649 1.224-3.467 4.147-3.467.476 0 .833.051 1.054.085l-.068-3.077h2.687l.067 3.91zm-2.617 1.581a2.845 2.845 0 0 0-1.173-.238c-.833 0-1.717.323-1.717 1.139 0 .323.187 1.054 1.58 1.054.511 0 1.31-.102 1.31-1.122v-.833zm4.538-4.81c-1.411-.833-2.72-1.479-4.964-2.312l1.156-2.312a24.504 24.504 0 0 1 4.98 2.244l-1.172 2.38zM80.502 34.11c-.238-.187-.629-.51-1.683-.884-.221 1.751-.782 2.669-1.326 3.4l-1.802-1.547c.714-1.088.986-1.989 1.054-4.521h-.408v-.986l-.407 1.717c-.222-.306-.289-.425-.629-1.105v6.375h-2.193v-5.474c-.374 1.241-.68 1.836-.969 2.397l-.748-3.638c1.003-1.53 1.53-3.74 1.632-4.233h-1.377v-2.312h1.462v-2.856h2.193v2.856h.781c-.152-.119-.203-.17-.425-.34l.969-1.547c.034.034.238.187.289.221.459-.68.562-.901.697-1.224l1.648.374c-.425.765-1.02 1.581-1.224 1.819.119.136.221.238.408.476.595-.833.68-.986.867-1.309l1.054.493c-.018-.782-.018-1.258-.018-1.819h2.278a29.148 29.148 0 0 0-.018 1.836l.646-.969c.152.153.187.187.255.238.441-.646.595-.952.697-1.19l1.632.391c-.408.68-.936 1.496-1.258 1.904.187.238.288.34.407.493.459-.646.697-1.003.936-1.411l1.462.595c-.97 1.411-1.666 2.396-2.602 3.365.289-.017.714-.051 1.343-.102a7.553 7.553 0 0 0-.271-.816l1.274-.34c.323.816.357.952.816 2.788l-1.39.375c-.068-.425-.085-.476-.103-.561-.221.034-.441.068-.815.102.289.476.492.969.611 1.258h1.513v2.159h-2.753l1.784.782c-.255.476-.765 1.377-2.091 2.55.238.323.511.408.629.408.562 0 1.343-1.513 1.514-1.853l1.121 2.057c-.425.816-1.155 2.125-2.686 2.125-.799 0-1.496-.272-2.38-1.377-1.41.867-2.328 1.156-2.906 1.343l-.901-1.989c.578-.136 1.598-.357 2.839-1.122-.34-.952-.68-2.431-.799-2.924h-2.142c-.018.238-.018.629-.034.731 1.394.34 1.955.68 2.261.867l-.714 1.954zm-4.59-8.057l.204.017c.103-.119.578-.646 1.224-1.513-.391-.442-.815-.85-1.088-1.105v2.159h-.951v1.326a9.61 9.61 0 0 0 1.07 1.462h4.403c-.052-.408-.052-.51-.068-.714l-1.258.289a5.582 5.582 0 0 0-.085-.578c-.255.034-2.686.255-3.247.289l-.204-1.632zm3.145-.034c-.136-.561-.187-.68-.288-.918l1.291-.272c.272.663.442 1.36.527 1.683-.034-.493-.136-1.581-.204-3.552-.476.646-1.666 2.227-2.532 3.11l1.206-.051zm3.825-.255c.646-.748.884-1.037 1.037-1.241-.392-.493-1.003-1.088-1.275-1.343.018.34.034 1.088.188 2.584h.05zm1.581 2.635c-.408-.833-.459-.935-.578-1.105-.17.017-.289.034-.884.068.017.17.034.391.119 1.037h1.343zm-1.003 2.159c.152.697.221 1.037.34 1.462.561-.544.73-.816 1.155-1.462H83.46zM94.969 25.696c-.085-.238-.118-.391-.288-.816a63.869 63.869 0 0 1-5.967.578l-.221-2.193h.918c.237-.51.833-1.802 1.07-2.838l2.601.238c-.374.935-.714 1.53-1.309 2.55.357 0 1.122-.017 2.091-.119-.289-.595-.51-.935-.765-1.36l2.04-.748c.866 1.326 1.428 2.261 2.073 3.876l-2.243.832zm-5.728.221h6.952v9.247c0 1.258-1.054 1.377-1.156 1.377h-2.329l-.441-2.261h1.292c.271 0 .289-.221.289-.34v-.884h-2.21v3.485h-2.396V25.917zm2.397 1.904v.952h2.21v-.952h-2.21zm0 2.55v.986h2.21v-.986h-2.21zm8.141-9.944v1.785c1.411-.391 2.159-.748 3.4-1.547l1.444 1.904c-1.189.833-3.298 1.445-4.845 1.734v1.054c0 .425.222.425.426.425h1.547c.306 0 .611 0 .629-1.904l2.431.595c-.068 2.244-.477 3.536-1.87 3.536h-3.858c-1.717 0-1.853-.782-1.853-1.717v-5.864h2.549zm-2.515 8.04h2.516v1.649c1.445-.51 2.074-.799 3.196-1.632l1.563 1.87c-1.359.85-3.161 1.564-4.76 1.904v1.36c0 .238.103.493.477.493h1.411c.425 0 .595-.136.696-2.142l2.448.595c-.222 2.294-.357 3.824-2.04 3.824h-3.876c-.714 0-1.632-.068-1.632-1.648v-6.273zM119.33 22.416v2.278h-6.953c-.203.51-.356.799-.714 1.479.714-.34 1.258-.595 2.091-.595 1.599 0 2.228.765 2.602 1.581.544-.204 2.312-.884 3.875-1.292l.493 2.516c-1.292.272-2.192.493-3.876 1.037.034.374.085 1.19.034 2.737h-2.55c.085-.952.068-1.564.051-1.768-.765.374-1.887.935-1.887 1.853 0 1.037 1.241 1.088 3.009 1.088 1.309 0 2.958-.051 4.267-.221v2.55c-2.532.068-3.06.068-3.654.068-2.55 0-6.408-.085-6.408-3.145 0-2.277 2.635-3.604 4.283-4.419-.221-.391-.646-.51-1.071-.51-.985 0-2.328.816-3.06 1.836-1.325 1.87-1.717 2.261-1.954 2.499l-1.819-1.853c1.139-1.156 2.566-2.72 3.604-5.439h-2.924v-2.278h3.604c.136-.629.203-.952.288-1.547l2.805.153c-.17.782-.221 1.003-.34 1.394h6.204zM45.253 45.939v2.414c-2.771 2.158-2.873 4.691-2.873 5.575 0 2.431 1.394 3.128 3.094 3.128 2.329 0 3.298-1.241 3.298-3.621 0-2.498-.629-5.27-1.751-7.496l2.431-.936c.935 2.414 1.853 3.961 4.879 5.253l-1.055 2.771c-1.258-.629-1.784-1.139-2.413-1.903.17.526.374 1.258.374 2.651 0 3.247-1.19 5.933-5.593 5.933-5.354 0-5.848-3.893-5.848-5.389 0-2.124.833-4.165 2.244-5.779l-2.396.034v-2.635h5.609zM68.627 51.634c-2.975.272-9.349 1.36-9.349 3.858 0 1.462 1.853 1.53 4.352 1.53 1.003 0 3.06-.017 5.49-.289l.017 2.771c-.918.068-2.431.188-4.76.188-2.702 0-8.006 0-8.006-4.046 0-2.362 2.176-3.909 4.097-4.827-.289-.408-.459-.799-.561-1.514-.153-1.037-.153-2.651-.153-4.045h2.906c-.017.611-.033 1.088-.033 2.26 0 1.395 0 1.854.306 2.363 1.189-.374 2.481-.68 5.354-1.088l.34 2.839zM75.445 56.529c6.493 0 7.819-2.091 7.819-4.283 0-2.346-1.564-3.094-3.146-3.094-1.41 0-2.855.221-8.38 1.563l-.663-2.94c.799-.119 4.317-.73 5.032-.85 1.41-.222 2.771-.442 4.198-.442 3.773 0 5.864 2.55 5.864 5.729 0 1.547-.493 4.437-4.028 5.882-2.176.9-4.675 1.036-5.848 1.07l-.848-2.635zM92.19 45.616c-.188.986-.663 3.638-.663 7.819 0 3.4.306 5.27.459 6.068l-2.839.188c-.153-.885-.408-2.516-.408-5.779 0-2.856.17-5.678.595-8.5l2.856.204zm4.386 7.429c-.578.781-.816 1.479-.816 1.92 0 1.105 1.258 1.242 2.754 1.242.526 0 2.584-.035 4.046-.205l.051 2.754c-.646.086-1.598.17-3.111.17-3.604 0-6.238-.51-6.238-3.535 0-.596.085-1.615.901-2.992l2.413.646zm5.711-6.477v2.652h-8.516v-2.652h8.516z"/></g></svg>